<svg width="297" height="259" fill="none" xmlns="http://www.w3.org/2000/svg"><path fill-rule="evenodd" clip-rule="evenodd" d="M89.53 31.02h11.021v-2.04h-11.02v2.04Zm-6.938-2.04.746 2.04h.127l.76-2.04h-1.633Zm-16.326 2.04h10.612v-2.04H66.266v2.04Zm-26.123-2.04v2.04h16.496c2.927 0 5.136-2.04 5.136-2.04H40.143Zm-16.735 2.04H38.51v-2.04H23.408v2.04Zm66.122-4.08h11.021v-2.041h-11.02v2.04Zm-8.163-2.041.771 2.04h2.998l.721-2.04h-4.49Zm-15.101 2.04h10.612v-2.04H66.266v2.04Zm-26.123-2.04v2.04h23.31c.49-.467.771-2.04.771-2.04H40.143Zm-16.735 2.04H38.51v-2.04H23.408v2.04Zm66.53-4.489h6.531v-2.04h-6.53v2.04Zm-10.204-2.04.787 2.04h6.175l.794-2.04h-7.756Zm-9.387 2.04h6.53v-2.04h-6.53v2.04Zm-12.653-2.04v2.04h6.94c0-.964-.415-2.04-.415-2.04h-6.525Zm-13.061 2.04h6.53v-2.04h-6.53v2.04Zm-17.143 0h6.53v-2.04h-6.53v2.04Zm62.449-4.082h6.53v-2.04h-6.53v2.04Zm-11.837-2.04.799 2.04h9.056l.757-2.04H78.102Zm-7.755 2.04h6.53v-2.04h-6.53v2.04Zm-25.714-2.04v2.04H63c-.442-.99-1.825-2.04-1.825-2.04H44.633Zm-17.143 2.04h6.53v-2.04h-6.53v2.04Zm42.857-6.122v2.04h6.486V13.15l.412 1.136h11.887l.442-1.136v1.136h6.487v-2.041h-12.18l-.646 1.729-.65-1.73H70.348Zm-25.714 0v2.04h16.542s1.383-1.046 1.825-2.04H44.633Zm-17.143 2.04h6.53v-2.04h-6.53v2.04Zm57.93-6.122-.787 2.041h11.836v-2.04H85.421Zm-15.073 0v2.041h11.428l-.761-2.04H70.347Zm-12.653 0v2.041h6.525s.414-1.078.414-2.04h-6.939Zm-13.061 2.041h6.53v-2.04h-6.53v2.04Zm-17.143 0h6.53v-2.04h-6.53v2.04Zm59.487-6.122-.711 2.04h14.285v-2.04H86.976Zm-20.711 0v2.04H80.55l-.708-2.04H66.266Zm-26.123 0v2.04h24.081s-.282-1.573-.772-2.04h-23.31ZM23 6.122h15.102v-2.04H23v2.04ZM88.272 0l-.782 2.04h13.061V0H88.272ZM66.266 0v2.04h13.06L78.553 0H66.266ZM40.143 0v2.04h21.632S59.566 0 56.64 0H40.143ZM23 2.04h15.102V0H23v2.04Z" fill="#fff"/><path d="M44 112.471V75.458c.032-.186.067-.37.097-.558a5.837 5.837 0 0 1 5.698-4.895h23.408a5.228 5.228 0 0 1 2.386.538c2.241 1.123 3.392 2.955 3.394 5.443.017 11.982.017 23.962 0 35.942 0 .229-.015.461-.037.688a5.94 5.94 0 0 1-5.745 5.364c-1.743.04-3.514 0-5.272.012H50.086a5.952 5.952 0 0 1-5.852-4.41c-.11-.364-.16-.74-.234-1.111Zm33.646-18.498v-17.84a7.095 7.095 0 0 0-.057-.946 4.6 4.6 0 0 0-4.468-3.912H49.872c-.51.014-1.015.11-1.494.286a4.662 4.662 0 0 0-3.023 4.458c.016 11.953.016 23.906 0 35.859-.006.207 0 .413.017.618a4.635 4.635 0 0 0 4.567 4.159c7.71.011 15.42.011 23.13 0a4.438 4.438 0 0 0 3.394-1.547 4.646 4.646 0 0 0 1.186-3.237c-.007-5.968-.008-11.934-.003-17.898Z" fill="#fff"/><path d="M69.806 115.883c.17-.077.344-.147.498-.236.404-.217.434-.543.093-.837a8.514 8.514 0 0 1-.626-.575c-.137-.142-.08-.249.105-.304.184-.055.326-.067.498-.11.314-.082.404-.196.416-.513.113-2.226.35-4.445.707-6.646a9.38 9.38 0 0 0 .172-1.193 6.175 6.175 0 0 0-.135-1.126 63.197 63.197 0 0 0-1.693-7.333c-.219-.772-.319-1.577-.513-2.359a27.166 27.166 0 0 0-.597-1.97.706.706 0 0 1 .112-.7c.555-.796 1.085-1.61 1.623-2.42.483-.732.996-1.447 1.445-2.199.292-.496.537-1.02.73-1.564.497-1.412.995-2.831 1.421-4.266.07-.379.031-.77-.112-1.128-.1-.306-.443-.433-.747-.522a.914.914 0 0 0-.374-.04c-.644.09-1.167-.167-1.703-.498-2.988-1.84-5.977-3.654-8.965-5.479a.692.692 0 0 0-.747-.035 4.95 4.95 0 0 0-.747.555c-.204.185-.371.411-.57.603-.2.192-.122.299.017.446.376.396.785.396 1.133-.025.19-.232.341-.498.526-.732.293-.384.473-.411.886-.15l7.787 4.904c.384.249.765.48 1.14.727.063.04.145.134.135.187-.075.471-.032.954.127 1.404a3.54 3.54 0 0 1 0 1.846 2.1 2.1 0 0 1-.839 1.225c-.284.214-.593.396-.879.605-.336.249-.68.498-.996.77a4.408 4.408 0 0 1-1.494.851c-.478.164-.959.321-1.435.498-.117.042-.179.037-.249-.085-.236-.425-.498-.846-.747-1.265a2.578 2.578 0 0 1-.309-.498c-.122-.426-.44-.55-.814-.582a5.142 5.142 0 0 0-1.106-.02c-1.182.157-1.847 1.598-1.494 2.632.188.431.51.79.92 1.023.116.083.248.157.383.25-.434.363-.421.851-.394 1.347.028.495.02.948.072 1.419.08.717.466 1.302.902 1.853.319.403.645.802.964 1.205a3.284 3.284 0 0 1 .67 2.715 5.551 5.551 0 0 0 .199 2.926c.15.373.368.716.642 1.011.24.291.435.616.58.963.327.708.613 1.435.924 2.147.13.238.164.517.095.779a.249.249 0 0 0 .027.177.328.328 0 0 1-.097.476.679.679 0 0 0-.336.59c0 .07-.105.182-.184.217-.192.087-.406.119-.595.206-.205.08-.394.194-.558.339-.458.461-.887.949-1.33 1.42a.895.895 0 0 1-.279.209 10.896 10.896 0 0 0-2.772 1.76 1.455 1.455 0 0 1-.682.349c-.57.122-.77.383-.812.974a.538.538 0 0 1-.147.301 3.336 3.336 0 0 0-.909 1.634 2.5 2.5 0 0 0 .132 1.212c.07.225.145.449.232.718h-9.08a3.901 3.901 0 0 1-3.882-3.128 4.668 4.668 0 0 1-.077-.996V83.577c0-2.525.022-5.053 0-7.578a3.93 3.93 0 0 1 3.185-3.92c.225-.043.453-.066.682-.067h23.083a3.875 3.875 0 0 1 3.867 3.868c.013 3.65 0 7.301 0 10.957v25.084a3.862 3.862 0 0 1-1.848 3.429 3.641 3.641 0 0 1-1.95.588c-1.1.018-2.201 0-3.3 0l-.007-.055Zm-14.137-1.992c.262.089.534.144.81.164.637.023 1.274 0 1.914 0v-1.882h-.615c-.289-.023-.323-.057-.328-.344 0-.249 0-.498-.015-.747-.035-.478-.085-.959-.481-1.297.652-.561.996-1.245.847-2.102a2.074 2.074 0 0 0-1.696-1.743c.964-.436 1.245-1.211 1.265-2.142.02-.931 0-1.82 0-2.739v-.782c0-.18.09-.249.269-.249h.632V98.06h-2.216c1.464-.841 1.955-2.131 1.952-3.68-.002-1.55-.555-2.817-1.942-3.666h.921v-1.76h-1.018c-.429 0-.528-.1-.53-.533v-3.303a1.02 1.02 0 0 1 .124-.323c.132.055.314.077.38.174.12.187.205.393.25.61.06.282.072.57.105.852h1.895v-3.579h-8.634v3.566h1.873c.008-.235.038-.47.09-.7.094-.287.223-.563.385-.819.05-.082.25-.1.361-.097.04 0 .105.165.105.25v3.374c0 .428-.115.498-.556.513h-.963v1.778h.747c-.097.062-.142.094-.19.122a3.526 3.526 0 0 0-1.479 1.708 5.003 5.003 0 0 0-.31 2.4c.037.846.361 1.654.918 2.292.299.292.614.567.944.824h-1.925v1.424c0 .526 0 .526.523.526.396 0 .418.022.418.413v3.564a1.84 1.84 0 0 0 .981 1.673l.195.115v.042h-2.107v1.94h.65c.211 0 .286.087.286.284v3.753c0 .202-.092.286-.289.284-.196-.003-.403 0-.602 0v1.9h5.122l.934-.09Zm2.261-36.313c-.182.012-.363-.027-.436.042-.204.207-.388.107-.597.045-1.699-.498-3.106.585-2.929 2.276.137 1.308 1.76 2.212 2.914 1.606.249-.129.438-.216.665 0a.395.395 0 0 0 .174.07c.207.052.299-.015.304-.229.005-.214 0-.498 0-.747 0-.54-.025-.518.453-.687v-.404h-2.112v.409l.11.022c.366.09.473.23.433.555a.537.537 0 0 1-.59.52.931.931 0 0 1-.872-.552 2.046 2.046 0 0 1 .053-1.955.772.772 0 0 1 .46-.37c.62-.118 1.158 0 1.407.644 0 .037.023.09.05.105.1.05.217.134.304.114a.338.338 0 0 0 .197-.249c.025-.38.012-.774.012-1.215Zm-6.512 2.408h.371a7.28 7.28 0 0 0 .872-.062c.704-.122 1.11-.57 1.103-1.183a1.245 1.245 0 0 0-1.063-1.183 6.978 6.978 0 0 0-.996-.04c-.514 0-1.024.023-1.537.033h-.408c0 .074 0 .127-.015.181-.028.21 0 .364.269.379.189 0 .249.152.249.336v1.85c0 .58-.058.648-.623.73 0 0-.025.017-.037.03v.46h2.24c.392 0 .392 0 .36-.395a.291.291 0 0 0-.028-.083 2.363 2.363 0 0 1-.498-.084.449.449 0 0 1-.249-.262 4.36 4.36 0 0 1-.01-.707Zm9.82 1.53h2.258c.055 0 .154-.096.152-.14 0-.122.107-.322-.122-.349a.697.697 0 0 1-.578-.498c-.334-.76-.68-1.514-1.026-2.269-.11-.249-.174-.57-.366-.692s-.52-.027-.79-.047a.289.289 0 0 0-.318.206c-.426.92-.86 1.83-1.29 2.74a.86.86 0 0 1-.67.538c-.234.037-.112.224-.135.343-.022.12.06.16.172.16h1.744c.139 0 .191-.06.171-.187-.02-.127.083-.294-.142-.314-.592-.052-.485-.19-.316-.593.015-.035.023-.084.05-.104.077-.06.162-.15.249-.155.249-.02.52 0 .782 0 .473 0 .473 0 .642.451.117.311.078.389-.249.399-.184 0-.249.077-.216.249a1.795 1.795 0 0 0-.003.261Z" fill="#fff"/><path d="M68.485 108.838c-.165.82-.371 1.719-.523 2.627a15.764 15.764 0 0 0-.162 3.736.517.517 0 0 0 .306.498.462.462 0 0 1 .21.222H59.6c.072-.197.127-.384.201-.561a5.09 5.09 0 0 1 1.245-1.658c.274-.264.568-.498.832-.777a.306.306 0 0 1 .416-.062c.389.196.78.381 1.166.58a.33.33 0 0 0 .132.056.33.33 0 0 0 .273-.064.343.343 0 0 0 .093-.109c.881-1.096 1.954-1.992 2.97-2.964.543-.528 1.076-1.056 1.557-1.524Zm.363-20.156-1.245 1.47a1.374 1.374 0 0 0-.1-.195c-.281-.356-.271-.458.11-.682.38-.224.787-.446 1.183-.668l.052.075Z" fill="#fff"/><path d="M60.326 79.61h.937l-.461-1.029-.476 1.029Z" fill="#A32751"/><path d="M55.968 109.732c.12.067.207.12.297.167.53.284.622.782.637 1.315v.759c.015.466.122.583.588.633.124.012.249 0 .41 0v.949a.505.505 0 0 1-.114.032c-.475 0-.951 0-1.424-.027a1.462 1.462 0 0 1-1.44-1.425c-.03-.321-.037-.647-.047-.971-.02-.62-.296-.894-.909-.894h-.889c0 .07-.022.122-.022.174v1.614a.45.45 0 0 0 .498.498h.12c.54 0 .542 0 .537.555 0 .481.065.424-.433.426H50.31c-.211 0-.3-.052-.28-.279.019-.226 0-.44 0-.692h.55a.394.394 0 0 0 .422-.264.404.404 0 0 0 .02-.177v-4.395c0-.299-.156-.441-.46-.443h-.513v-.857c0-.045.13-.114.2-.114h2.183c1.046 0 2.09.01 3.133.032.182.009.362.038.538.087 1.225.301 1.424 1.873.921 2.565-.2.221-.43.41-.687.56-.117.069-.24.127-.369.172Zm-2.89-.548c.477 0 .943.035 1.401 0a.799.799 0 0 0 .747-.836c.028-.546-.157-.867-.662-.959-.49-.062-.985-.096-1.48-.102l-.007 1.897Zm-3.022-14.802a3.803 3.803 0 0 1 .705-2.323c.653-.87 1.57-1.245 2.617-1.335a4.363 4.363 0 0 1 2.16.311c1.265.56 1.872 1.577 1.992 2.914.054.553.011 1.11-.127 1.648a3.051 3.051 0 0 1-2.134 2.242 4.62 4.62 0 0 1-3.158-.09c-1.148-.45-1.768-1.332-1.97-2.528-.052-.271-.06-.557-.085-.839Zm5.307.1c0-.782-.035-1.42-.279-2.025a1.188 1.188 0 0 0-1.098-.802 1.244 1.244 0 0 0-1.29.7c-.085.17-.152.347-.2.53a6.344 6.344 0 0 0-.111 2.401c.057.397.163.785.316 1.156a1.048 1.048 0 0 0 .8.642c.747.157 1.33-.184 1.616-.966a4.623 4.623 0 0 0 .246-1.626v-.01Zm-.669 5.06c0-.087-.015-.147-.015-.21v-.774h3.026v.997h-.444a.365.365 0 0 0-.413.363 2.412 2.412 0 0 0-.023.354v3.324c.005.214-.005.428-.03.64a1.64 1.64 0 0 1-1.292 1.442 5.292 5.292 0 0 1-3.237-.134c-.72-.264-1.313-.792-1.285-1.861.032-1.21 0-2.423 0-3.633 0-.396-.087-.486-.486-.498h-.398v-.996c.082 0 .166-.015.249-.015h3.347c.234 0 .303.07.286.296-.017.227 0 .454 0 .713h-.635c-.289 0-.4.104-.44.386-.015.109-.022.22-.02.331v3.349c0 .775.248 1.096.995 1.188.384.042.772.015 1.146-.08a.893.893 0 0 0 .687-.961v-3.735c0-.371-.102-.476-.478-.486-.16-.002-.341 0-.54 0Zm-3.721-13.597h-.92v-2.644h7.65v2.637h-.918c-.035-.21-.055-.416-.107-.613a1.278 1.278 0 0 0-1.537-.996.309.309 0 0 0-.276.346v4.179c0 .396.172.563.565.565h.854c.13 0 .187.043.182.18v.664h-5.17v-.841h.97c.46 0 .622-.162.622-.63V84.73c0-.294-.05-.354-.341-.41-.748-.145-1.41.398-1.522 1.244-.017.11-.035.237-.052.381Z" fill="#fff"/><path d="M53.508 102.042v-1.591c0-.351.07-.421.408-.421h.855c.298 0 .383.077.383.376v2.329c0 .269-.022.54 0 .807.057.58-.498.821-.899.784-.4-.037-.797-.269-.76-.834.036-.481.01-.966.013-1.45Zm.837 9.954a3.103 3.103 0 0 1-.545 0 .297.297 0 0 1-.185-.217c-.02-.284 0-.568 0-.851 0-.033 0-.088.02-.09.165-.028.332-.038.498-.03a.274.274 0 0 1 .194.184c.03.319.018.65.018 1.004Zm-2.929-32.695v-1.036c0-.05.065-.14.107-.144.25-.028.52-.04.697.184a.693.693 0 0 1 .063.747.436.436 0 0 1-.274.192 4.378 4.378 0 0 1-.593.057Zm8.91.309.476-1.029.46 1.029h-.936Z" fill="#fff"/><path d="M53.602 107.775v.924l.093.017h.473a.462.462 0 0 0 .34-.106.458.458 0 0 0 .158-.32.498.498 0 0 0-.458-.513c-.192-.017-.389-.002-.605-.002Zm1.223-13.435h-.05c.013-.15.013-.3 0-.45-.057-.42-.14-.836-.249-1.246a.642.642 0 0 0-.64-.446.693.693 0 0 0-.672.404 1.923 1.923 0 0 0-.175.463 6.132 6.132 0 0 0-.064 2.333c.035.288.12.568.249.827a.673.673 0 0 0 1.175.04c.11-.155.187-.33.227-.516.087-.47.137-.94.199-1.409Z" fill="#A32751"/><path d="M53.602 107.775c.217 0 .414-.015.608 0a.495.495 0 0 1 .458.513.456.456 0 0 1-.317.407.44.44 0 0 1-.18.019h-.474l-.092-.018-.002-.921Zm1.164-13.283c-.014.418-.06.834-.137 1.245a1.4 1.4 0 0 1-.227.515.674.674 0 0 1-1.175-.04 2.56 2.56 0 0 1-.25-.826 6.13 6.13 0 0 1 .065-2.334c.038-.16.097-.317.175-.463a.693.693 0 0 1 .672-.403.67.67 0 0 1 .667.378c.13.427.205.868.225 1.313v.45a5.743 5.743 0 0 0-.015.165Z" fill="#fff"/><path fill-rule="evenodd" clip-rule="evenodd" d="M42.946 248.046c0 .525-.385.957-.933.957-.533 0-.918-.433-.918-.957v-9.127c0-.525.385-.957.933-.957.533 0 .918.433.918.957v9.127Zm11.964-9.127v8.34c0 1.127-.577 1.761-1.495 1.761h-.073c-.874 0-1.29-.526-1.659-1.298l-1.866-3.784-1.659-3.906.045 3.783.015 4.216c0 .525-.385.957-.933.957-.533 0-.918-.433-.918-.957v-8.34c0-1.035.577-1.761 1.585-1.761h.074c.933 0 1.317.526 1.688 1.298l1.836 3.753 1.57 3.645-.045-3.491-.014-4.215c0-.525.384-.957.933-.957.531-.001.916.431.916.956Zm7.42 9.112c0 .525-.385.957-.934.957-.532 0-.917-.433-.917-.957v-8.262h-2.296c-.473 0-.858-.371-.858-.911 0-.525.385-.895.858-.895h6.442c.473 0 .858.371.858.911 0 .525-.385.895-.858.895h-2.296v8.262Zm5.568-.309v-8.571c0-.803.43-1.251 1.214-1.22h5.331c.474 0 .859.386.859.911s-.385.895-.859.895h-4.71v2.656h4.162c.46 0 .83.356.83.865 0 .51-.37.865-.83.865h-4.161v3.058h4.71c.473 0 .858.385.858.911 0 .525-.385.895-.859.895h-5.375c-.77.001-1.2-.447-1.17-1.265Zm17.489 1.312c.518-.278.681-.85.43-1.298l-1.852-3.427c1.526-.309 2.414-1.483 2.414-3.074 0-1.667-1.006-3.304-3.42-3.304h-3.51c-.784-.031-1.214.417-1.214 1.22v8.895c0 .525.385.958.918.958.548 0 .933-.432.933-.958l-.015-3.366h1.955l2.058 3.968c.251.448.8.649 1.303.386Zm-2.385-6.1H80.07v-3.198h2.917c.977 0 1.526.648 1.526 1.591 0 .942-.519 1.607-1.511 1.607Zm7.197 5.235c-1.11-1.035-1.614-2.656-1.614-4.694 0-2.055.489-3.66 1.585-4.679.68-.618 1.599-1.035 2.932-1.035 1.17 0 2.073.278 2.754.88.593.494 1.022 1.19 1.274 2.163.133.509-.208 1.019-.77 1.127-.533.093-.962-.263-1.125-.772-.178-.494-.415-.849-.696-1.097-.385-.355-.859-.51-1.482-.51-.666 0-1.244.201-1.673.649-.622.648-.889 1.807-.889 3.274 0 1.452.252 2.61.904 3.258.43.448.992.648 1.644.648.68 0 1.199-.185 1.629-.602.221-.216.415-.494.548-.818.192-.479.592-.835 1.11-.711.518.124.844.649.681 1.158-.267.849-.725 1.529-1.347 1.993-.681.509-1.525.772-2.591.772-1.363 0-2.222-.417-2.874-1.004Zm13.595-10.408c-3.214 0-4.576 2.255-4.576 5.714 0 3.567 1.348 5.714 4.576 5.714 3.169 0 4.561-2.147 4.561-5.714 0-3.521-1.377-5.714-4.561-5.714Zm-.015 1.807c1.762 0 2.68 1.281 2.68 3.907 0 2.624-.933 3.906-2.68 3.906-1.762 0-2.651-1.281-2.651-3.906s.918-3.907 2.651-3.907Zm18.941 8.463c0 .525-.385.957-.933.957-.533 0-.918-.433-.918-.957v-4.139l.044-4.031-1.288 4.093-1.303 4.031c-.222.71-.681.988-1.259.988-.607 0-1.051-.293-1.288-1.003l-1.333-4.015-1.229-4.031.044 3.969v4.139c0 .525-.385.957-.933.957-.533 0-.918-.433-.918-.957v-8.262c0-1.143.592-1.807 1.629-1.807.978 0 1.526.54 1.836 1.528l1.362 4.216.83 2.873.844-2.873 1.362-4.216c.312-.988.845-1.528 1.822-1.528 1.036 0 1.614.648 1.614 1.807l.015 8.261Z" fill="#fff"/><path d="M26.148 245.053c0 .276-.106.541-.294.737a.988.988 0 0 1-.71.305.988.988 0 0 1-.71-.305 1.064 1.064 0 0 1-.295-.737v-9.305c0-.277.106-.542.294-.737a.988.988 0 0 1 .71-.305c.267 0 .523.11.71.305.19.195.295.46.295.737v9.305Zm-.349 6.448c-.132.137-3.868 3.365-10.716 3.365-6.848 0-10.559-3.21-10.717-3.348a1.017 1.017 0 0 1-.24-.313 1.057 1.057 0 0 1 .124-1.133.993.993 0 0 1 .683-.358.982.982 0 0 1 .728.246c.058.043 3.395 2.849 9.414 2.849 6.018 0 9.38-2.823 9.413-2.849a.995.995 0 0 1 1.42.112 1.05 1.05 0 0 1-.1 1.437l-.009-.008ZM4.01 235.748c.015-.278.136-.537.335-.723a.987.987 0 0 1 .728-.267.984.984 0 0 1 .656.306c.175.183.278.426.29.684v9.288c0 .276-.106.541-.294.736a.984.984 0 0 1-.71.305.984.984 0 0 1-.71-.305 1.06 1.06 0 0 1-.295-.736v-9.288Zm5.04-2.066c.014-.278.134-.537.333-.723a.99.99 0 0 1 .729-.267.985.985 0 0 1 .656.306c.175.183.278.426.29.684v13.773c0 .276-.106.541-.294.736a.984.984 0 0 1-.71.305.984.984 0 0 1-.71-.305 1.06 1.06 0 0 1-.295-.736v-13.773Zm5.063-.517c0-.276.105-.541.294-.736a.985.985 0 0 1 .71-.306c.267 0 .522.11.71.306.189.195.294.46.294.736v14.978c0 .277-.105.542-.294.737a.988.988 0 0 1-.71.305.988.988 0 0 1-.71-.305 1.06 1.06 0 0 1-.294-.737v-14.978Zm4.98.517c0-.277.106-.542.295-.737a.988.988 0 0 1 .71-.305c.266 0 .522.11.71.305.188.195.294.46.294.737v13.773c0 .276-.106.541-.294.736a.984.984 0 0 1-.71.305.984.984 0 0 1-.71-.305 1.06 1.06 0 0 1-.295-.736v-13.773Zm7.33-5.682H3.777a3.64 3.64 0 0 0-1.44.287 3.756 3.756 0 0 0-1.223.837c-.351.36-.63.788-.821 1.26-.191.472-.29.978-.293 1.49v23.242c.002.512.102 1.018.293 1.49.19.472.47.9.82 1.259.351.36.767.645 1.224.838.457.193.947.29 1.44.287h22.645c.493.003.981-.094 1.438-.286a3.755 3.755 0 0 0 1.223-.836c.35-.358.63-.785.82-1.256.192-.471.293-.976.296-1.487v-23.251a4.016 4.016 0 0 0-.292-1.488 3.907 3.907 0 0 0-.819-1.259 3.746 3.746 0 0 0-1.22-.837 3.63 3.63 0 0 0-1.438-.29m2.285-60.644-.037-.098-3.697-9.645a.984.984 0 0 0-1.254-.549.97.97 0 0 0-.593.648l-2.496 7.641H10.53l-2.495-7.641a.987.987 0 0 0-.594-.647.988.988 0 0 0-.873.089.959.959 0 0 0-.38.459l-3.696 9.647-.039.096a6.863 6.863 0 0 0 2.278 7.934l.014.01.032.025 5.624 4.215 2.791 2.109 1.695 1.282a1.147 1.147 0 0 0 1.382 0l1.695-1.282 2.79-2.109 5.666-4.24.015-.012a6.866 6.866 0 0 0 2.28-7.932Zm22.137-.499h3.973c-.663-4.225-4.32-7.167-9.08-7.167-5.632 0-9.858 4.141-9.858 11.075 0 6.811 4.036 11.036 9.973 11.036 5.328 0 9.143-3.428 9.143-8.976v-2.585H46.27v3.047h4.96c-.063 3.07-2.112 5.013-5.35 5.013-3.603 0-6.072-2.7-6.072-7.576 0-4.846 2.511-7.535 5.989-7.535 2.595 0 4.37 1.386 5.055 3.668Zm6.778 14.649h3.804v-16.133H57.63v16.133Zm1.918-18.697c1.209 0 2.196-.927 2.196-2.06 0-1.134-.987-2.071-2.196-2.071s-2.206.925-2.206 2.071c0 1.146.98 2.06 2.2 2.06h.006Zm13.277 2.564H69.64v-3.876h-3.804v3.876h-2.29v2.942h2.29v8.975c-.021 3.037 2.187 4.535 5.044 4.446a7.713 7.713 0 0 0 2.24-.378l-.642-2.976a4.645 4.645 0 0 1-1.113.149c-.958 0-1.725-.337-1.725-1.872v-8.353h3.185v-2.933Zm2.945 16.133h13.377v-3.269H79.67v-18.254h-3.9v21.523Zm20.664.326c2.533 0 4.045-1.188 4.739-2.543h.126v2.217h3.662v-10.803c0-4.267-3.478-5.548-6.558-5.548-3.394 0-6 1.512-6.84 4.454l3.553.506c.376-1.104 1.449-2.049 3.314-2.049 1.766 0 2.733.903 2.733 2.49v.063c0 1.092-1.146 1.146-3.995 1.449-3.13.337-6.125 1.272-6.125 4.908-.01 3.175 2.311 4.856 5.391 4.856Zm1.25-2.791c-1.586 0-2.722-.725-2.722-2.122 0-1.462 1.272-2.07 2.965-2.313 1-.136 2.997-.389 3.488-.787v1.902c.011 1.791-1.44 3.315-3.73 3.315v.005Zm10.078 2.465h3.741v-2.543h.22c.6 1.177 1.85 2.827 4.625 2.827 3.804 0 6.652-3.017 6.652-8.333 0-5.381-2.932-8.302-6.662-8.302-2.848 0-4.036 1.712-4.615 2.879h-.161v-8.051h-3.8v21.523Zm3.73-8.07c0-3.14 1.345-5.161 3.794-5.161 2.532 0 3.837 2.154 3.837 5.161 0 3.007-1.324 5.232-3.837 5.232-2.428 0-3.794-2.101-3.794-5.232Z" fill="#fff"/><path fill-rule="evenodd" clip-rule="evenodd" d="M188.924 5.714a2.855 2.855 0 0 1-2.858-2.857A2.855 2.855 0 0 1 188.924 0a2.854 2.854 0 0 1 2.857 2.857v2.857h-2.857Zm44.49-4.898h-4.898v22.857h4.898V.817Zm-19.593 20.876 1.334-3.134c1.442 1.088 3.357 1.654 5.251 1.654 1.398 0 2.281-.544 2.281-1.371-.009-.893-1.264-1.17-2.804-1.51-2.44-.537-5.592-1.232-5.631-4.781-.022-2.94 2.56-5.203 6.218-5.203 2.174 0 4.347.544 5.896 1.785l-1.248 3.2c-1.42-.914-3.185-1.567-4.863-1.567-1.14 0-1.893.544-1.893 1.24.008.884 1.295 1.234 2.867 1.66 2.454.667 5.601 1.522 5.654 4.893 0 3.004-2.518 5.116-6.133 5.116-2.647 0-5.078-.632-6.929-1.982Zm52.549-4.266a3.987 3.987 0 0 1-3.447 1.98c-2.187 0-3.955-1.74-3.955-3.896 0-2.155 1.768-3.896 3.955-3.896 1.48 0 2.762.805 3.447 1.98l3.778-2.067a8.328 8.328 0 0 0-7.225-4.18c-4.573 0-8.285 3.657-8.285 8.163s3.712 8.164 8.285 8.164c3.115 0 5.811-1.677 7.225-4.18l-3.778-2.068Zm5.411-16.61v22.858h4.709v-6.855l5.589 6.855h6.029l-7.107-8.143 6.579-7.598h-5.765l-5.325 6.31V.816h-4.709Zm-24.4 6.857v1.85c-.787-1.284-2.741-2.176-4.786-2.176-4.224 0-7.549 3.613-7.549 8.141 0 4.528 3.325 8.186 7.549 8.186 2.045 0 3.999-.893 4.786-2.177v1.85h4.808V7.673h-4.808Zm-.001 9.796c-.696 1.11-2.134 1.938-3.752 1.938-2.224 0-4.021-1.742-4.021-3.897s1.797-3.896 4.021-3.896c1.618 0 3.056.87 3.752 2.002v3.853Zm-62.946.082a2.854 2.854 0 0 1-2.857 2.857 2.854 2.854 0 0 1-2.857-2.857 2.854 2.854 0 0 1 2.857-2.857h2.857v2.857Zm4.49-2.857c-1.581 0-2.858 1.297-2.858 2.902v7.257c0 1.605 1.277 2.902 2.858 2.902 1.58 0 2.857-1.297 2.857-2.902v-7.257c0-1.605-1.277-2.902-2.857-2.902Zm2.857-4.49c0-1.58-1.295-2.857-2.898-2.857h-7.266c-1.602 0-2.897 1.277-2.897 2.857 0 1.58 1.295 2.857 2.897 2.857h7.266c1.603 0 2.898-1.277 2.898-2.857Zm8.98 0a2.854 2.854 0 0 1 2.857-2.857 2.854 2.854 0 0 1 2.857 2.857 2.854 2.854 0 0 1-2.857 2.857h-2.857v-2.857Zm-4.49 2.857c1.58 0 2.857-1.295 2.857-2.897V2.898c0-1.603-1.277-2.898-2.857-2.898-1.58 0-2.857 1.295-2.857 2.898v7.266c0 1.602 1.277 2.897 2.857 2.897Zm0 8.98a2.854 2.854 0 0 1 2.857 2.857 2.854 2.854 0 0 1-2.857 2.857 2.854 2.854 0 0 1-2.857-2.857V22.04h2.857Zm-2.857-4.49c0 1.58 1.295 2.857 2.898 2.857h7.266c1.602 0 2.897-1.277 2.897-2.857 0-1.58-1.295-2.857-2.897-2.857h-7.266c-1.603 0-2.898 1.277-2.898 2.857ZM246.012 83h-4.844v20.348h5.322c7.537-.078 10.343-4.568 10.317-10.129-.025-6.529-3.523-10.167-10.795-10.219Zm-.214 17.806H244.1V85.581s1.006-.026 1.975-.026c5.008 0 7.738 2.787 7.75 7.651 0 5.535-2.755 7.6-8.027 7.6ZM176.642 83c2.631 0 3.745.142 5.352.994 1.737.943 2.813 2.789 2.813 5.1 0 2.13-.869 3.977-2.553 5.087-1.543 1.02-3.292 1.162-5.638 1.162h-5.896V83h5.922Zm-2.929 9.76h3.59c2.514 0 4.419-1.006 4.419-3.64 0-2.453-1.542-3.538-4.627-3.5l-3.382.027v7.114Zm-2.993 5.165h2.993v5.423h-2.993v-5.423Zm107.599-10.04h2.748v2.253h-2.748v9.108c0 1.442.7 1.874 1.794 1.874.191 0 .535-.026.7-.052v2.162c-.119.015-.23.031-.334.046h-.001c-.264.038-.495.072-.759.072-2.609 0-4.263-.891-4.263-3.932v-9.278h-2.215v-2.254h2.215v-4.101h2.863v4.101Zm-72.101 20.941c5.047 0 7.545-2.856 7.545-8.129V88.919h-2.875v.918c0 .302 0 .617.026.919-.858-1.195-2.433-2.278-5.047-2.278-4.046 0-6.973 2.92-6.973 7.249 0 4.165 2.706 7.134 6.947 7.134 2.64 0 4.306-1.107 5.047-2.353.013 0 .02.007.026.013.007.006.013.012.026.012 0 3.952-1.223 6.028-4.67 6.028-2.238 0-3.318-1.195-3.838-2.529h-3.044c.807 2.881 3.07 4.794 6.83 4.794Zm.286-8.267c-2.81 0-4.449-2.026-4.449-4.858 0-2.944 1.691-4.857 4.449-4.857s4.475 1.913 4.475 4.77c0 3.22-1.951 4.945-4.475 4.945Zm87.01-12.068-2.903 8.026a116.74 116.74 0 0 0-.81 2.297c-.142.415-.291.848-.469 1.356h-.053c-.372-1.163-.707-2.108-1.186-3.46l-.041-.116-2.824-8.116h-3.377l5.844 14.895-.156.385c-.081.201-.165.407-.253.618-.488 1.157-1.649 1.916-2.929 1.916h-1.451v2.534h1.491c2.415 0 4.592-1.428 5.489-3.627 1.86-4.54 5.027-12.27 6.834-16.708h-3.206Zm-70.442 12.6c-2.953 0-4.662-1.957-4.785-4.428h11.911v-.89c0-3.794-2.288-7.295-7.244-7.295-4.576 0-7.626 3.11-7.626 7.526s2.932 7.344 7.626 7.344c3.654 0 6.06-1.83 6.928-4.38h-2.932c-.775 1.208-1.788 2.123-3.878 2.123Zm4.075-6.587c-.263-2.232-1.775-3.818-4.26-3.818-2.38 0-4.207 1.452-4.496 3.818h8.756Zm8.134-5.662v1.843c.473-1.354 1.918-2.207 3.58-2.207.348 0 .516.022.693.046l.035.004v2.545a5.97 5.97 0 0 0-.984-.087c-2.672 0-3.183 1.93-3.183 4.84v7.522h-2.851v-11.91c0-.916 0-1.719-.025-2.596h2.735Zm29.765 14.506c2.496 0 3.923-1.191 4.687-2.432v2.068h2.726c-.025-.714-.025-1.429-.025-2.181V88.478h-2.841v6.658c0 3.184-.535 5.892-3.567 5.892-2.305 0-3.261-1.717-3.261-4.563v-7.987h-2.827v9.04c0 3.761 1.681 5.83 5.108 5.83Zm-69.763-1.672-.027-.552c-1.136 1.548-2.648 2.224-5.037 2.224-3.139 0-5.412-1.463-5.412-4.117 0-3.06 3.074-4.068 7.065-4.584a54.545 54.545 0 0 1 3.074-.32c0-2.813-1.64-3.661-3.358-3.661-1.718 0-2.971 1.143-2.971 2.642h-2.79c0-2.888 2.39-4.83 5.826-4.83 3.435 0 6.083 1.352 6.083 6.563v2.764c0 2.299.117 3.982.375 5.285h-2.713v-.013c-.072-.45-.086-.768-.115-1.401Zm-7.377-2.482c0 1.327 1.137 2.163 2.958 2.163 2.674 0 4.108-1.548 4.108-4.313 0-.357 0-.602.026-.762-4.87.479-7.092.934-7.092 2.912Z" fill="#fff"/><path d="M279.431 258.172c-.361-1.103-.714-2.207-1.087-3.306-.061-.187.069-.179.154-.211a8.33 8.33 0 0 0 2.994-1.797 6.952 6.952 0 0 0 1.294-1.66c.127-.217.171-.474.122-.722-.349-1.894-.706-3.789-1.059-5.679l-1.144-6.216c-.073-.385-.142-.767-.223-1.152-.024-.126 0-.174.138-.174h3.976c.101 0 .15 0 .162.134.166 1.659.341 3.314.511 4.973l.487 4.759c.093-.024.077-.113.097-.17 1.092-3.209 2.321-6.37 3.558-9.522.037-.097.057-.174.199-.174h4.025c.029.003.057.01.085.02-.167.361-.329.714-.495 1.063-1.623 3.436-3.185 6.897-4.848 10.313a31.438 31.438 0 0 1-3.355 5.541 11.161 11.161 0 0 1-3.773 3.295 8.483 8.483 0 0 1-1.623.641c-.029 0-.061 0-.069.048l-.126-.004Zm-85.018-.572-2.617-.438-7.201-1.245-6.97-1.217-3.683-.629c-.187-.033-.244-.077-.215-.292.271-1.996.519-3.992.779-5.984.259-1.992.523-3.988.783-5.984.275-2.118.543-4.24.811-6.358.069-.527.15-1.054.219-1.578a.723.723 0 0 1 .544-.641c1.136-.357 2.268-.722 3.408-1.063a.44.44 0 0 0 .344-.405 12.076 12.076 0 0 1 3.307-6.333 4.658 4.658 0 0 1 2.71-1.396 2.703 2.703 0 0 1 2.434.836c.061.061.106.121.211.113 1.347-.061 2.272.617 2.962 1.7.259.401.462.835.604 1.29.065.199.134.26.341.183.292-.106.6-.179.901-.264a.559.559 0 0 1 .324 0v.142l.004 29.563Zm-10.585-5.821h.52a4.49 4.49 0 0 0 3.736-2.264 5.374 5.374 0 0 0 .706-2.503 4.775 4.775 0 0 0-1.623-4.057 13.977 13.977 0 0 0-1.748-1.262 6.717 6.717 0 0 1-1.217-.917 1.21 1.21 0 0 1-.357-1.136 1.513 1.513 0 0 1 1.217-1.217 5.097 5.097 0 0 1 3.136.227c.166.061.219.041.264-.138.288-1.111.588-2.223.888-3.33.097-.374.101-.386-.272-.479a7.748 7.748 0 0 0-5.314.552 5.722 5.722 0 0 0-3.38 4.823c-.195 1.793.361 3.27 1.854 4.349.471.337.954.658 1.396 1.039.372.29.646.688.783 1.14a1.307 1.307 0 0 1-.447 1.485c-.148.111-.318.19-.499.231a2.15 2.15 0 0 1-.868 0 6.677 6.677 0 0 1-2.507-1.128c-.138-.093-.182-.089-.219.085-.195.852-.396 1.703-.604 2.552a.328.328 0 0 0 .125.382 6.735 6.735 0 0 0 4.43 1.566Zm4.13-26.415a1.764 1.764 0 0 0-1.217-.228 3.655 3.655 0 0 0-2.028 1.088 11.27 11.27 0 0 0-2.937 5.31c-.049.187.02.171.162.13.811-.26 1.655-.519 2.487-.767a.244.244 0 0 0 .191-.227c.061-.331.145-.658.251-.978.588-1.74 1.42-3.314 3.091-4.328Zm1.218 3.436v-.142a7.157 7.157 0 0 0-.43-2.219c-.065-.175-.138-.191-.289-.106a3.799 3.799 0 0 0-.774.564 7.583 7.583 0 0 0-1.867 3.315c0 .073-.085.158 0 .219.086.061.13 0 .195-.033l2.645-.811c.601-.166.601-.166.54-.783l-.02-.004Zm.628-2.674c.073.26.151.499.211.739.156.654.243 1.323.26 1.996 0 .069-.069.235.134.17l1.347-.406c.093-.028.122-.077.089-.17a4.304 4.304 0 0 0-1.055-1.805 1.868 1.868 0 0 0-.965-.52l-.021-.004Z" fill="#fff"/><path d="M194.413 257.6v-29.676a.504.504 0 0 1 .357.202c.653.633 1.306 1.262 1.956 1.903a.483.483 0 0 0 .369.158l2.093.025c.406 0 .487.093.54.487.158 1.103.324 2.211.487 3.314l.499 3.335c.166 1.128.336 2.256.503 3.379l.486 3.315.499 3.359c.167 1.104.325 2.207.491 3.315l.499 3.359c.053.377.098.758.167 1.132.028.158-.025.203-.163.235-1.29.312-2.576.633-3.862.949l-4.807 1.217a.396.396 0 0 1-.114-.008Zm52.412-.186.572-3.015a9149.509 9149.509 0 0 0 2.215-11.615c.268-1.403.491-2.815.682-4.231.057-.406.105-.791.154-1.189 0-.126.053-.195.215-.191h3.221c.142 0 .203 0 .183.187-.081.653-.142 1.306-.211 1.964.101 0 .118-.081.158-.13a5.49 5.49 0 0 1 3.144-2.126c1.554-.337 2.966-.077 4.057 1.181.598.704.97 1.572 1.067 2.491a10.995 10.995 0 0 1-2.288 8.43 6.896 6.896 0 0 1-4.13 2.621 5.68 5.68 0 0 1-3.696-.349c-.142-.069-.158 0-.178.101l-.524 2.84c-.173.955-.349 1.902-.527 2.84-.02.089 0 .191-.174.191h-3.863a.988.988 0 0 1-.077 0Zm11.327-14.751a3.407 3.407 0 0 0-.332-1.623 1.36 1.36 0 0 0-1.197-.743 2.304 2.304 0 0 0-1.85.905 6.053 6.053 0 0 0-1.359 2.868c-.288 1.359-.507 2.731-.759 4.098a.17.17 0 0 0 .008.111.18.18 0 0 0 .073.084 2.554 2.554 0 0 0 1.887.478 2.739 2.739 0 0 0 1.773-1.14 8.777 8.777 0 0 0 1.756-5.059v.021Zm-32.731-3.635c.395-.399.816-.77 1.261-1.112a5.118 5.118 0 0 1 3.798-.941 3.035 3.035 0 0 1 2.539 2.649c.13.933.102 1.88-.085 2.803-.54 2.99-1.112 5.972-1.667 8.958-.033.179-.086.264-.305.26h-3.623c-.154 0-.211 0-.174-.195.511-2.653 1.014-5.306 1.509-7.96a8.854 8.854 0 0 0 .154-1.963 1.212 1.212 0 0 0-.503-1.089 1.207 1.207 0 0 0-.579-.221 1.203 1.203 0 0 0-.613.093 2.874 2.874 0 0 0-1.506 1.176 7.803 7.803 0 0 0-1.278 3.193 7440.94 7440.94 0 0 0-1.302 6.808c-.024.137-.069.174-.203.17h-3.72c-.158 0-.187-.024-.154-.191.576-3.015 1.149-6.028 1.72-9.039.541-2.848 1.082-5.688 1.623-8.519.178-.933.357-1.871.527-2.808.021-.134.069-.178.207-.178h3.72c.187 0 .183.077.155.207l-1.485 7.708c-.004.036-.008.113-.016.191Zm14.337 12.905a5.677 5.677 0 0 1-3.392-.974 4.925 4.925 0 0 1-2.113-3.542 9.78 9.78 0 0 1 2.296-7.854 7.295 7.295 0 0 1 4.99-2.6 6.218 6.218 0 0 1 3.347.503 4.707 4.707 0 0 1 2.747 3.651c.543 3.529-.382 6.629-3.088 9.063a6.965 6.965 0 0 1-4.787 1.753Zm3.878-9.291a4.139 4.139 0 0 0-.081-.981c-.385-1.887-2.19-1.923-3.14-1.112-.358.305-.662.67-.896 1.079a9.08 9.08 0 0 0-1.136 3.538c-.105.673-.09 1.36.044 2.028.374 1.623 1.988 2.142 3.246 1.015a4.17 4.17 0 0 0 .909-1.242 10.285 10.285 0 0 0 1.038-4.325h.016Zm34.104-2.349h-1.217c-.134 0-.179.029-.207.171-.287 1.549-.58 3.099-.881 4.649l-1.107 5.842c0 .089-.037.183-.053.276-.085.406-.085.406-.515.406h-3.445c-.162 0-.202 0-.17-.199.638-3.319 1.263-6.629 1.874-9.932.061-.328.122-.661.187-.99.032-.154.028-.239-.178-.231h-1.481c-.163 0-.187-.049-.158-.191.174-.892.348-1.789.515-2.689.028-.15.077-.215.255-.211h1.457c.178 0 .235-.045.263-.223a9.731 9.731 0 0 1 1.072-3.347 5.604 5.604 0 0 1 4.377-2.978 7.24 7.24 0 0 1 2.933.186c.191.057.256.118.199.341-.243.901-.463 1.814-.682 2.722-.04.163-.089.224-.275.167a3.271 3.271 0 0 0-1.441-.118 2.186 2.186 0 0 0-1.448.99 5.673 5.673 0 0 0-.734 2.154c-.037.163.105.102.17.102h2.377c.24 0 .26.073.22.272-.163.862-.321 1.729-.475 2.6-.029.17-.098.227-.272.223-.389-.004-.771.008-1.16.008Zm-65.882 11.624a8.48 8.48 0 0 1-3.866-.909c-.138-.073-.166-.138-.114-.284.306-.844.601-1.691.885-2.54.057-.158.105-.154.239-.089a7.762 7.762 0 0 0 3.01.811c.338.02.675-.027.994-.138a1.328 1.328 0 0 0 .88-.922 1.345 1.345 0 0 0-.295-1.24 3.65 3.65 0 0 0-.982-.811 10.616 10.616 0 0 1-1.712-1.193c-1.992-1.773-1.518-4.333-.167-5.802a5.632 5.632 0 0 1 3.246-1.704 9.262 9.262 0 0 1 4.28.199c.763.227.759.24.515.982-.243.742-.446 1.363-.661 2.049-.049.154-.105.178-.26.117a6.122 6.122 0 0 0-2.612-.474 2.14 2.14 0 0 0-1.002.288 1.157 1.157 0 0 0-.561 1.386c.055.173.15.33.277.46.287.301.623.552.994.742a9.905 9.905 0 0 1 1.699 1.164c1.554 1.36 1.818 2.954 1.067 4.816-.543 1.347-1.622 2.138-2.969 2.617a9.073 9.073 0 0 1-2.885.475Zm57.496-14.666c-.426 2.227-.848 4.418-1.27 6.609l-1.241 6.438-.219 1.152c-.021.114-.037.195-.195.195h-3.814a.614.614 0 0 1-.105 0c.142-.751.284-1.493.426-2.236l1.059-5.566 1.103-5.797c.041-.215.085-.43.118-.645 0-.098.048-.134.15-.134l3.988-.016Zm-3.482-3.806a2.332 2.332 0 0 1 .916-1.879 2.32 2.32 0 0 1 2.054-.385 1.928 1.928 0 0 1 1.4 1.96 2.254 2.254 0 0 1-1.887 2.292c-1.57.313-2.503-.681-2.483-1.988Zm-2.158-71.921s-1.703-1.313-7.21-3.337a40.22 40.22 0 0 0-8.527-2.187v10.546c0 4.462-5.034 9.193-13.638 9.193h-.251c-8.603 0-13.637-4.731-13.637-9.193V156a40.115 40.115 0 0 0-8.522 2.187c-5.512 2.024-7.209 3.337-7.209 3.337.408 8.463 13.55 15.434 29.473 15.434 15.924 0 29.072-7 29.48-15.434" fill="#fff"/><path d="M263.72 185.211s-1.704 1.313-7.21 3.342a39.895 39.895 0 0 1-8.522 2.182v-10.546c0-4.456-5.039-9.187-13.643-9.187h-.245c-8.603 0-13.643 4.731-13.643 9.187v10.546a39.925 39.925 0 0 1-8.522-2.182c-5.506-2.029-7.209-3.342-7.209-3.342.408-8.458 13.549-15.428 29.479-15.434 15.93-.006 29.071 7 29.48 15.434" fill="#fff"/></svg>