<svg height="171" width="340" xmlns="http://www.w3.org/2000/svg" xmlns:xlink="http://www.w3.org/1999/xlink"><defs><path id="a" d="m23.516 70.112h8.709l-3.484 15.677h-5.225z"/><path id="b" d="m180.287 70.112h8.709v15.677h-5.225z"/><path id="c" d="m.329.451v3.405l3.784 6.101.912 1.655 3.249-4.162 1.655-4.634v-2.696z"/><filter id="d" height="125.5%" width="145.9%" x="-23%" y="-12.8%"><feOffset dy="4" in="SourceAlpha" result="shadowOffsetInner1"/><feComposite in="shadowOffsetInner1" in2="SourceAlpha" k2="-1" k3="1" operator="arithmetic" result="shadowInnerInner1"/><feColorMatrix in="shadowInnerInner1" values="0 0 0 0 0.0745098039 0 0 0 0 0.4 0 0 0 0 0.729411765 0 0 0 1 0"/></filter><filter id="e" height="125.5%" width="145.9%" x="-23%" y="-12.8%"><feOffset dy="4" in="SourceAlpha" result="shadowOffsetInner1"/><feComposite in="shadowOffsetInner1" in2="SourceAlpha" k2="-1" k3="1" operator="arithmetic" result="shadowInnerInner1"/><feColorMatrix in="shadowInnerInner1" values="0 0 0 0 0.0745098039 0 0 0 0 0.4 0 0 0 0 0.729411765 0 0 0 1 0"/></filter><mask id="f" fill="#fff"><use fill="#fff" fill-rule="evenodd" xlink:href="#c"/></mask></defs><g fill="none" fill-rule="evenodd"><ellipse cx="170" cy="152.707" fill="#dfe3e8" rx="169.347" ry="7.831"/><ellipse cx="170.326" cy="153.034" fill="#c4cdd5" rx="67.217" ry="3.589"/><path d="m174.384 63.271 3.699-3.637-3.214-3.479-2.25.712.636 4.902z" fill="#ba936e"/><path d="m175.033 18.818s2.224 1.126 3.792 2.707 3.07 2.372 4.968 3.084c1.897.711 4.743 1.897 5.218 4.032.474 2.135-1.503 9.25-2.372 11.069-.87 1.818-1.74 6.957-1.66 8.697.078 1.739-1.695 7.59-3.97 8.776-2.277 1.186-7.754-4.19-7.754-4.19l-.636-20.873.815-7.195 1.6-6.107z" fill="#194775"/><path d="m173.219 51.806s2.396.638 4.864 2.296 3.417 2.711 3.575 3.252c.157.54-.87 2.2-1.66 2.754-.791.553-1.753 1.344-2.26 1.107-.508-.237-4.519-4.683-4.519-4.683z" fill="#113a63"/><path d="m162.129 22.711s-2.767 1.69-4.349 7.289c-1.58 5.598-5.93 35.643-5.93 35.643h24.23s-2.487-5.298-2.091-15.338c.395-10.042 1.343-13.758 1.422-17.553.08-3.795-1.977-7.827-1.977-7.827l-11.305-2.215z" fill="#f7f4f1"/><path d="m167.985 29.907c-.281 0-.408 1.27-.422 3.156-.015 1.888-.15 2.786-.11 4.37.039 1.585.075 2.094.082 3.004.034 1.15-.114 2.54-.003 4.147.097 1.385.15 2.479.41 2.479.339 0 .49-1.173.429-1.9-.115-1.394.088-2.072.032-3.541a34.276 34.276 0 0 1 .084-5.102c.047-.532-.05-1.357-.065-2.168-.014-.763.078-1.095.021-1.988-.113-1.768-.202-2.457-.458-2.457m-1.006 2.608a.447.447 0 1 1 -.894 0 .447.447 0 0 1 .894 0m0 4.854a.447.447 0 1 1 -.894 0 .447.447 0 0 1 .894 0m0 4.853a.447.447 0 1 1 -.894 0 .447.447 0 0 1 .894 0" fill="#c7b3a9"/><path d="m157.464 19.803c-2.293.299-4.428.457-6.8.694s-7.273.158-9.25 1.66c-1.977 1.503-16.92 21.665-17.79 23.721-.869 2.056-1.58 5.218 0 7.59 1.74 2.61 11.544-3.795 11.544-3.795s-.316-1.423 1.344-2.846c1.66-1.424 3.953-3.32 3.953-3.32s.475 3.952 1.028 5.77c.554 1.819-.237 4.507-.632 5.456-.396.949-4.349 10.91-4.349 10.91h17.395s1.344-5.297 2.135-10.436c.79-5.139 1.303-11.148 2.272-16.208.97-5.06 2.562-13.427 4.256-16.2 1.695-2.775-1.468-5.37-1.468-5.37s-1.344 2.076-3.637 2.375z" fill="#194775"/><path d="m127.499 57.894 4.032 7.749h8.223l-3.084-12.018z" fill="#ba936e"/><path d="m124.02 53.071s-.87 1.345-.395 3.084c.474 1.74 1.107 2.925 2.372 3.084 1.265.158 9.25-3.084 11.069-4.903.395-.553.79-1.976 0-3.478s-1.74-2.135-2.372-1.819c-.633.317-6.167 1.029-10.674 4.032" fill="#113a63"/><path d="m157.397 20.424c-.255-.121-1.12 1.403-2.246 3.74-1.13 2.339-1.78 3.398-2.682 5.384l-.93 2.075c-.409.884-.73 1.583-1.107 2.4l.53-.202 1.044-.399.901-.332 1.292-.456a59.02 59.02 0 0 0 1.396-.511l.732-.288.374-.154.189-.08.094-.04.046-.02.007-.005a.932.932 0 0 1 .09-.06l.034.05.018.03c.006.01.01.014.033.073l.206.517c.132.326.254.615.363.853.22.477.39.75.503.712.16-.054.149-.476.05-1a8.79 8.79 0 0 0 -.205-.83 8.627 8.627 0 0 0 -.13-.411l-.198-.549-.181-.482-.94.372-.527.197-.99.337c-.654.217-1.328.437-2.205.795l-.593.25-.14.07-.19.088.38-.775.63-1.247c.376-.724.667-1.25.9-1.67.355-.64.754-1.708 1.22-2.72.438-.955.718-1.329 1.194-2.463.941-2.246 1.269-3.14 1.037-3.25m19.001 1.178c-.272.07-.108 1.218.303 2.881.41 1.664.484 2.487.879 3.872.395 1.384.544 1.822.756 2.62.095.326.177.677.264 1.068l.057.26v.039c0 .022-.003.037-.001.054a.093.093 0 0 0 -.046-.017c-.04-.01.047.04-.288-.084-1.193-.412-2.126-.757-2.229-.52-.135.313.782.874 1.413 1.08.176.059.337.117.487.177l.218.09.335.148c.481.223.934.435 1.42.662-.063-.3-.139-.64-.233-1.033l-.158-.627-.073-.275-.057-.195a28.256 28.256 0 0 1 -1.07-4.508c-.074-.48-.355-1.182-.55-1.89-.187-.668-.173-.984-.429-1.755-.508-1.527-.75-2.11-.997-2.047m9.304 12.894c-.132-.042-.345.258-.752.76a20.652 20.652 0 0 1 -1.803 1.97 9.658 9.658 0 0 0 -1.758 2.307 10.685 10.685 0 0 0 -.969 2.395c-.486 1.891-.5 2.539-.696 3.595-.229 1.337-.826 2.872-1.584 4.584-.332.74-.704 1.362-.977 1.809-.273.446-.449.724-.35.818.116.115.464-.055.815-.39a4.58 4.58 0 0 0 .905-1.222c.388-.775.67-1.342.95-1.93.273-.59.538-1.202.757-2.082.177-.75.298-1.455.399-2.075.1-.613.216-1.16.342-1.642.25-.966.532-1.676.767-2.183.252-.562.55-1.474 1.059-2.252.496-.737.818-.863 1.56-1.723 1.402-1.705 1.572-2.67 1.335-2.739m-44.929 8.605c.177.218.817-.138 1.588-.861.767-.726 1.21-1.005 1.776-1.7.549-.71.692-.964.995-1.38.352-.542.921-1.13 1.24-2.015.267-.762.37-1.398.132-1.458-.163-.045-.333.071-.467.238a1.314 1.314 0 0 0 -.17.282c-.056.098-.1.2-.125.293-.197.725-.575.938-.944 1.627-.659 1.192-1.367 1.776-1.773 2.102-.224.185-.46.575-.76.9-.282.304-.477.363-.79.737-.626.738-.865 1.035-.702 1.235" fill="#0e345a"/><path d="m178.307 10.482s.782 1.992-.64 4.34c-1.424 2.349-1.21 3.416-1.495 5.195s-5.266 5.265-5.266 5.265l-4.34-.996-2.989-1.992-1.067-3.487-.57-1.21s-1.138-1.565-1.279-3.77c-.142-2.206.427-3.132 1.495-3.345 1.067-.213 1.351-2.775 1.351-2.775l.213-2.736 2.632-3.526 5.978.783 4.553 1.708 1.638 1.707z" fill="#ba936e"/><path d="m175.674 19.59s-.214 1.352-1.281 1.139c-1.067-.214-2.349-1.472-5.194-.559-2.846.914-3.63.44-4.127 0-.498-.438-1.068-1.505-.855-2.786.214-1.281 1.14-4.625.926-6.333-.214-1.707-.142-3.415-.142-3.415l-.83.356-.452 3.629s.498 2.917-.782 5.407c0 0-1.022.222-1.934-1.42 0 0-.912 2.89-.699 5.143.213 2.254 1.747 8.018 7.669 9.156 4.783.427 4.499-.64 5.566-2.846 1.068-2.205 1.78-2.348 2.135-3.7s1.28-4.91 0-3.771" fill="#dfe3e8"/><path d="m171.76 13.364s-2.49-1.886-4.412 0m10.389-.419s-1.566-.613-2.704.881" stroke="#85694e" stroke-linecap="round" stroke-width="1.175"/><path d="m168.162 16.065c-.167.378-.117.765.11.864.226.1.545-.125.71-.503.167-.377.118-.765-.11-.864-.226-.1-.545.125-.71.503m6.297.427c-.167.377-.117.765.11.864.226.1.545-.125.71-.503.167-.378.118-.765-.109-.865s-.545.126-.711.504" fill="#1b232c"/><path d="m160.875 11.594s-1.147-1.48-.236-5.222c.91-3.743 2.69-5.017 4.547-4.927s2.794-.344 3.953-.924c1.16-.58 3.988-.95 5.894.421 1.907 1.371 3.488 3.374 4.384 4.586s1.687 2.161 1.582 3.163c-.106 1.001-1.687 2.591-2.478 2.903 0 0-.052-3.378-1.37-4.643 0 0-3.896 4.643-9.803 1.792 0 0-1.576.685-1.711 2.267-.135 1.581-.068 2.572-.465 3.137s-1.04-.783-1.04-.783-.158-1.933-1.107-2.301c-.949-.37-1.666-.044-2.15.531" fill="#dfe3e8"/><path d="m170.648 22.158s.986.553 1.971 0" stroke="#85694e" stroke-linecap="round" stroke-width=".653"/><path d="m163.877 11.846 1.76 3.343m12.447-1.185.741 1.672m-.238 1.28s.98-1.423-.503-1.778c-1.485-.356-4.046.07-4.473.889s-.87 3.759 1.259 3.736c2.13-.023 3.717-2.846 3.717-2.846zm-6.826-.284s.426-1.496-1.352-2.136c-1.779-.64-3.842-.462-4.554.303s-.612 3.451 1.921 3.977c3.202.666 3.985-2.145 3.985-2.145zm1.674-.135s-.73-.648-1.629-.292" stroke="#020241" stroke-linecap="round" stroke-width=".653"/><path d="m275.937 94.916h40.864c.24 0 .436.195.436.436 0 .01 0 .022-.002.033l-4.287 55.741a.436.436 0 0 1 -.435.402h-32.29a.434.434 0 0 1 -.433-.402l-4.288-55.74a.434.434 0 0 1 .4-.468l.034-.002z" fill="#c4cdd5"/><path d="m316.535 55.606s-1.53-.998-2.8 3.736c-1.268 4.734-3.149 19.972-3.149 19.972s1.067 6.732-2.04 11.17c-3.106 4.438-10.625 5.178-11.748-1.553-1.123-6.732 8.272-26.926 8.272-26.926l3.032-6.487 4.735-1.502z" fill="#72c260"/><path d="m303.072 80.202a38.325 38.325 0 0 1 -.635-12.135c1.463-3.548 2.633-6.062 2.633-6.062l3.033-6.487 4.734-1.502 3.576 1.537c-.387-.12-1.622-.149-2.677 3.789-1.27 4.734-3.15 19.972-3.15 19.972s.972 6.147-1.654 10.566c-1.806-1.176-4.608-3.872-5.86-9.678" fill="#53b53d"/><path d="m281.547 63.558s4.905 3.673 7.397 10.43c2.492 6.758 3.37 11.061.888 13.685-2.59 2.737-9.69-1.48-11.762-13.537-2.071-12.057 0-12.131 0-12.131zm29.366-.609s4.364 4.826 5.178 12.815c.814 7.988-.961 9.616-3.698 10.282-2.737.665-7.693-4.821-7.841-14.098s0-13.938 0-13.938z" fill="#72c260"/><path d="m292.412 95.666c.177-.089-.827-2.283-2.38-5.513-1.548-3.232-2.192-4.815-3.481-7.534-1.283-2.723-1.694-3.597-2.393-5.175-.89-1.994-1.847-4.454-2.946-7.285-.47-1.221-.836-2.333-1.034-3.14a7.27 7.27 0 0 1 -.18-.95c-.02-.22-.011-.34-.058-.358-.05-.023-.155.105-.207.353-.05.245-.049.584-.005.958.086.748.335 1.63.572 2.286l1.137 3.125c.347.943.707 1.902 1.27 3.183 1.96 4.36 3.201 7.199 3.915 8.884.398.931 1.13 2.322 1.804 3.708.636 1.304.851 1.902 1.63 3.412 1.547 2.986 2.196 4.126 2.355 4.046m15.035-32.996c-.195.002-.209 2.569.52 6.272.37 1.85.683 3.208 1.037 4.478.162.638.367 1.246.561 1.891.224.636.438 1.312.742 2.045.3.74.543 1.346.744 1.863l.285.726.216.65c.286.814.461 1.492.693 2.357.132.552.26 1.135.379 1.749.098.618.225 1.26.303 1.939.19 1.352.323 2.825.441 4.407.207 2.734.086 4.897.261 4.909.12.01.251-.57.322-1.336.074-.767.09-1.718.047-2.445-.072-1.39-.139-2.422-.212-3.474-.092-1.05-.18-2.125-.465-3.569-.489-2.467-1.082-4.46-1.658-6.046l-.769-2.092c-.225-.606-.377-1.143-.528-1.592-.307-1.003-.866-2.536-1.252-4.091-.363-1.464-.448-2.117-.792-3.847-.332-1.715-.487-2.92-.604-3.69-.113-.77-.18-1.106-.271-1.104m-.889 20.494c-.179-.083-.677.787-1.212 2.16-.532 1.373-.842 2.011-1.188 3.204-.17.597-.266.995-.346 1.33-.085.333-.145.604-.227.951-.198.876-.524 1.927-.627 3.19l-.05.764c-.008.234-.004.445.001.621.014.353.052.568.142.573.247.009.397-.88.433-1.436.025-.536.096-.93.192-1.324.084-.397.191-.796.293-1.353.327-1.912.82-3.089 1.095-3.775.156-.38.295-1.005.497-1.597.193-.557.343-.775.556-1.431.432-1.297.606-1.801.441-1.877" fill="#3d842d"/><path d="m278.07 62.005 3.477 1.553s2.31 1.73 4.565 5c-1.881-.443-6.223-1.035-8.57 2.109-1.12-8.595.528-8.662.528-8.662" fill="#53b53d"/><path d="m285.287 67.43s-5.737-8.31-11.36-10.529c-5.62-2.22-9.616-1.332-10.873.74-1.258 2.07 3.18 3.772 7.397 5.03 4.216 1.257 12.733 3.896 14.836 4.759" fill="#53b53d"/><path d="m265.643 58.002c.005.195 1.183.266 2.928.519 1.744.27 2.542.552 3.978.898 1.428.384 1.881.532 2.685.81 1.01.37 2.178.94 3.537 1.576.6.252 1.106.535 1.49.706.383.174.635.256.682.179.126-.2-.785-.857-1.41-1.158-.61-.264-1.038-.507-1.481-.745-.45-.22-.9-.468-1.555-.716a128.47 128.47 0 0 0 -2.815-.983l-1.012-.34-.773-.245a6.203 6.203 0 0 0 -.912-.204c-.351-.064-.737-.123-1.119-.182l-.887-.165c-.272-.05-.56-.1-.987-.126-1.687-.106-2.354.005-2.35.176" fill="#fff"/><path d="m292.79 54.312s3.403 21.747-3.032 24.41c-5.918-2.737-12.606-18.047-12.606-18.047s-7.576-22.415 0-26.336c7.575-3.92 12.088 5.548 15.638 19.973" fill="#53b53d"/><path d="m277.152 34.34c6.299-3.26 10.48 2.737 13.75 13.142-1.669 4.966-5.047 12.053-11.657 17.537a84.06 84.06 0 0 1 -2.093-4.344s-7.576-22.415 0-26.335" fill="#72c260"/><path d="m297.892 39.592s4.737 4.216 6.29 13.758-1.923 16.288-7.693 17.316c-5.77 1.03-8.186-8.074-7.25-16.724.938-8.65 3.92-12.871 3.92-12.871l4.733-1.48z" fill="#72c260"/><path d="m297.892 39.592s2.046 1.822 3.89 5.78c-2.506-.545-6.852-.508-11.757 3.84 1.244-5.46 3.135-8.141 3.135-8.141l4.732-1.48z" fill="#53b53d"/><path d="m298.051 43.437c-.199.016.034 3.913.235 9.706.1 2.898.11 5.039.097 7.06-.006 2.024-.049 3.93-.112 6.359a98.949 98.949 0 0 1 -.136 3.094c-.05.875-.094 1.613-.134 2.287a87.77 87.77 0 0 0 -.103 1.903l-.09 1.94c-.133 3.541-.327 7.822-.218 12.77.091 4.266.247 7.631.43 7.624.231-.008.236-3.613.175-5.849-.12-4.282.029-6.366.092-10.88.034-1.928.085-3.688.172-5.285.071-1.602.203-3.03.286-4.328.195-2.59.264-4.586.325-6.068.054-1.64-.005-4.185-.068-6.68-.068-2.35-.025-3.375-.184-6.123-.333-5.435-.596-7.543-.767-7.53m-4.9 52.521c.098-.006.092-1.139-.052-3.101-.154-1.961-.42-4.756-.883-8.077a284.842 284.842 0 0 0 -1.208-8.084c-.177-1.158-.389-2.276-.609-3.453-.222-1.176-.444-2.414-.76-3.788l-.78-3.508-.644-2.57-.532-2.135-.601-2.16c-.282-.984-.55-2.026-.865-3.11l-1.036-3.387c-.34-1.184-.784-2.389-1.232-3.644-.455-1.252-.893-2.564-1.48-3.87l-1.357-3.185c-.44-.962-.884-1.804-1.238-2.516-.72-1.418-1.186-2.271-1.267-2.23-.105.056.264 1.034.803 2.284.269.626.58 1.319.896 2 .166.338.304.685.44 1.019l.398.948c.487 1.133.9 2.127 1.279 3.053.348.938.64 1.817.947 2.7.297.885.626 1.769.934 2.756.302.99.637 2.065 1.034 3.305.357 1.054.64 2.08.914 3.059l.783 2.802c.458 1.79.833 3.411 1.18 4.862.622 2.92 1.081 5.17 1.355 6.851.155.931.41 2.107.647 3.412.232 1.306.51 2.73.735 4.149.208 1.337.34 2.299.485 3.317.126 1.021.27 2.098.496 3.666.842 6.213 1.03 8.65 1.218 8.635" fill="#3d842d"/><path d="m304.419 55.153c.86 8.582-2.531 14.551-7.93 15.514-.843.15-1.612.078-2.311-.17 6.268-1.624 9.14-10.579 10.241-15.344" fill="#53b53d"/><path d="m304.552 36.781s3.402-3.107 1.997-6.51c-1.406-3.402-5.918-2.515-9.246 1.85-3.33 4.364-6.956 10.017-7.88 20.357-.923 10.34-.183 1.464-.183 1.464s.185-5.939 6.663-10.504c5.879-4.142 8.65-6.657 8.65-6.657" fill="#91cf83"/><path d="m306.548 32.795c.03-.197-1.025-.423-2.59-.32-1.556.122-2.316.187-3.58.579-.319.09-.573.196-.794.285l-.577.23-.938.452c-.219.097-.43.237-.665.359-.229.132-.484.246-.724.407-.48.322-1.012.66-1.478 1.15-.203.206-.416.378-.568.576-.159.191-.298.364-.41.513-.224.297-.336.496-.267.554.19.155.893-.468 1.28-.898.784-.797 1.297-1.028 2.276-1.66l.61-.38c.203-.108.402-.199.59-.29.19-.086.366-.176.542-.243l.505-.174.452-.149.41-.095c.256-.057.475-.108.664-.14.211-.029.472-.096.761-.174.29-.077.61-.135.93-.194.606-.083.874-.05 1.584-.124 1.412-.121 1.965-.078 1.987-.264" fill="#fff"/><path d="m328.962 62.949s1.406-.87.592-3.68c-.814-2.812-2.959-7.324-5.4-8.73-2.44-1.405-4.882-.74-7.249.518s-6.213 1.155-8.802 4.461c0 0 4.882-.762 9.69 3.01 4.808 3.773 7.989 6.252 11.17 4.42m-14.928 5.116s-3.935-10.645-8.817-14.048c-4.883-3.403-7.62-2.515-8.063-.444-.444 2.071 3.033 5.621 6.805 6.768 3.773 1.147 7.945 4.167 10.075 7.724" fill="#91cf83"/><path d="m328.147 62.013c.024-.092-.194-.238-.521-.588-.33-.34-.76-.88-1.2-1.583-.22-.354-.388-.674-.538-.972l-.428-.85a15.872 15.872 0 0 0 -.958-1.632c-.406-.6-.695-.983-.943-1.3a25.32 25.32 0 0 0 -.72-.89c-.69-.786-1.483-1.841-2.812-2.597-.273-.175-.575-.277-.826-.397-.265-.095-.512-.157-.714-.212-.425-.05-.68-.046-.691.044-.014.117.226.257.532.373.3.153.67.302.953.442.554.242.912.536 1.26.838.346.31.673.65 1.137 1.105a13.12 13.12 0 0 1 1.76 2.159c.416.626.687 1.14.888 1.52.217.424.651 1.024.997 1.662.345.607.435.917.948 1.577 1.035 1.308 1.837 1.487 1.875 1.302" fill="#fff"/><g transform="translate(70.793 66.175)"><use fill="#43a0ff" xlink:href="#a"/><use fill="#000" filter="url(#d)" xlink:href="#a"/><use fill="#43a0ff" xlink:href="#b"/><use fill="#000" filter="url(#e)" xlink:href="#b"/><rect fill="#0c4074" height="47.902" rx="6.097" width="181.158" x="15.677" y="10.016"/><rect fill="#1a8cff" height="38.322" rx="4.355" width="57.483" x="22.645"/><path d="m37.015 17.419a1.742 1.742 0 1 1 0 3.484 1.742 1.742 0 0 1 0-3.484zm29.177 0a1.742 1.742 0 1 1 0 3.484 1.742 1.742 0 0 1 0-3.484z" fill="#96caff"/><rect fill="#1a8cff" height="38.322" rx="4.355" width="53.563" x="79.692"/><path d="m91.885 17.419a1.742 1.742 0 1 1 0 3.484 1.742 1.742 0 0 1 0-3.484zm29.177 0a1.742 1.742 0 1 1 0 3.484 1.742 1.742 0 0 1 0-3.484z" fill="#96caff"/><rect fill="#1a8cff" height="38.322" rx="4.355" width="57.483" x="132.82"/><path d="m147.19 17.419a1.742 1.742 0 1 1 0 3.485 1.742 1.742 0 0 1 .001-3.485zm29.178 0a1.741 1.741 0 1 1 0 3.482 1.741 1.741 0 0 1 0-3.482z" fill="#96caff"/><path d="m4.673 29.612h13.76c1.505 0 2.84.967 3.31 2.398l7.573 23.075a3.485 3.485 0 0 0 3.31 2.398h147.363c1.508 0 2.844-.97 3.312-2.404l7.524-23.063a3.484 3.484 0 0 1 3.312-2.404h13.702a3.484 3.484 0 0 1 3.339 4.479l-9.932 33.344a4.355 4.355 0 0 1 -4.174 3.112h-181.632a4.355 4.355 0 0 1 -4.174-3.112l-9.932-33.344a3.484 3.484 0 0 1 3.339-4.479z" fill="#43a0ff"/><g fill="#96caff"><path d="m29.815 43.035c9.392.632 17.781.948 25.168.948 7.411 0 14.822-.318 22.234-.954a3.484 3.484 0 0 1 3.781 3.471v7.499a3.484 3.484 0 0 1 -3.483 3.484h-45.731a3.484 3.484 0 0 1 -3.343-2.501l-2.202-7.488a3.483 3.483 0 0 1 3.576-4.459z"/><path d="m84.341 43.023c7.543.64 15.031.96 22.464.96 7.41 0 14.822-.318 22.233-.954a3.485 3.485 0 0 1 3.782 3.471v7.499a3.484 3.484 0 0 1 -3.484 3.484h-45.29a3.484 3.484 0 0 1 -3.483-3.484v-7.504a3.484 3.484 0 0 1 3.778-3.472z"/><path d="m136.163 43.023c7.543.64 15.03.96 22.463.96 7.295 0 15.412-.308 24.35-.924a3.482 3.482 0 0 1 3.555 4.547l-2.416 7.465a3.483 3.483 0 0 1 -3.314 2.412h-44.933a3.483 3.483 0 0 1 -3.483-3.484v-7.504a3.484 3.484 0 0 1 3.778-3.472z"/></g><path d="m13.382 12.532s-.946-2.009.426-2.423c1.371-.415 8.748-1.691 13.998-3.346 5.25-1.656 10.877-2.98 12.248-3.169 1.372-.19 8.134-2.79 8.985-2.554.852.237 2.601 3.926 3.642 8.04 1.04 4.114 2.033 8.89 2.412 9.93.378 1.042 6.715 12.77 7.14 13.668.426.899.095 1.703-.52 1.939-.614.237-10.356 2.27-12.153 2.507-1.797.236-6.574.851-8.134 1.513-1.561.662-7.283 2.128-8.56 3.263s-5.391 3.121-6.81 2.27-2.838-8.749-3.31-11.066c-.473-2.317-3.311-9.411-4.493-11.067-1.182-1.655-4.871-9.505-4.871-9.505m132.557-10.12s-.189-2.412 1.703-2.412 14.376 2.554 16.647 3.121c2.27.568 20.902.946 22.037.662 1.136-.283 6.62-2.362 7.662-1.843 1.04.519.378 3.877 0 4.09-.379.212-3.594 10.144-3.878 15.156-.284 5.013-1.04 10.877-1.324 12.58-.285 1.702-.473 5.297-.285 6.337.19 1.04.285 1.797 0 2.46-.283.661-9.647 1.985-20.807.945-11.161-1.04-24.781-1.324-26.01-1.324-1.23 0-3.027-.662-2.27-2.175.756-1.514 3.026-6.054 3.215-7.473.19-1.419.946-2.837 1.514-4.067.567-1.229.756-9.756 1.513-11.073.756-1.317.662-13.046.283-14.464" fill="#8173cb"/></g><g transform="translate(22.29 70.094)"><path d="m11.487 72.289-1.307 9.58h-3.048v-9.58zm29.612 0v9.58h-3.048l-1.307-9.58h4.356z" fill="#8c6b54"/><path d="m2.777 29.177h42.677v43.548h-42.677z" fill="#a58c7a"/><path d="m6.697 33.096h34.838v35.709h-34.838z" fill="#bfada0" stroke="#8c6b54" stroke-width=".871"/><rect fill="#8c6b54" height="1" rx=".435" width="8.71" x="19.761" y="35.274"/><path d="m38.05 49.644a9.145 9.145 0 1 0 -18.289 0h18.29z" fill="#d8cdc6"/><path d="m29.777 65.104c0-5.412-4.387-9.799-9.798-9.799-5.412 0-9.799 4.387-9.799 9.799z" fill="#8c6b54"/><path d="m24.778 11.322a8.686 8.686 0 0 0 3.271-6.802v-.6h4.363l-.001.612a8.679 8.679 0 0 0 3.251 6.79 8.706 8.706 0 0 1 3.26 6.79v11.065h-17.42v-11.052a8.704 8.704 0 0 1 3.276-6.803z" fill="#010042"/><g transform="translate(.002)"><path d="m15.071 18.78s-1.894-2.156-1.012-4.18c.882-2.026 3.43-2.418 3.69-3.626.262-1.209-1.175-3.462.392-5.16 1.568-1.699 2.483-1.144 3.56-2.81 1.079-1.664 1.504-2.872 2.712-2.579 1.209.294.73 2.432.555 3.553-.26 1.673 1.568 3.589.882 5.603s-2.351 2.243-2.809 3.288c-.457 1.045 2.221 2.45.49 5.912h-8.459z" fill="#91cf83"/><path d="m18.322 18.321c.147.03.48-1.278.988-3.217.515-1.939.855-2.834 1.336-4.446.49-1.61.655-2.126.976-3.037.395-1.157.995-2.506 1.627-4.088l.386-.958.327-.77c.177-.44.266-.72.204-.753-.158-.081-.792 1.008-1.079 1.733-.272.695-.515 1.192-.737 1.71-.23.516-.469 1.039-.728 1.78l-1.798 5.148c-.188.538-.386 1.399-.608 2.235-.204.789-.346 1.12-.548 2.053-.392 1.849-.479 2.584-.346 2.61" fill="#fff"/><path d="m17.325 18.78h4.18s1.535-1.895 3.267-3.136c1.401-1.004 4.964-3.07 4.964-5.356s-6.728-2.874-12.411 8.492" fill="#53b53d"/><path d="m19.441 18.32c.135.067.608-.712 1.406-1.81.81-1.09 1.294-1.528 2.07-2.353.792-.815 1.07-1.054 1.574-1.466.312-.272.704-.507 1.112-.787.431-.243.875-.543 1.383-.811.216-.12.416-.248.608-.342.192-.09.364-.174.508-.248.285-.15.454-.264.431-.33-.054-.167-.9.062-1.37.324-.89.513-1.384.661-2.259 1.306-1.465 1.133-2.324 1.967-2.851 2.444-.283.274-.648.764-1.011 1.236-.336.449-.527.613-.875 1.172-.675 1.115-.844 1.605-.726 1.665" fill="#fff"/><path d="m18.109 13.26c-.523-1.078-2.068-.817-2.874-.392-.718.379-1.307-.02-1.078-.565.228-.545 2.588-2.636 2.013-4.4-.576-1.763-3.124-.522-3.124-.522s-.849.458-1.274-.62c-.451-1.148-.73-2.882-2.13-2.773a.351.351 0 0 0 -.182.002c-.059.017-.107.038-.16.058-.048.012-.091.019-.14.034a.35.35 0 0 0 -.148.094c-1.232.684-.5 2.285-.239 3.492.245 1.132-.716 1.223-.716 1.223s-2.808.38-2.308 2.168c.5 1.786 3.623 2.216 4.116 2.542.493.327.224.986-.583 1.069-.908.093-2.337.734-2.173 1.92.212 1.547 1.64 1.812 2.917 2.138s1.911 1.277 1.911 1.277l1.837-1.225h2.212s0-1.143.882-2.123c.881-.98 1.922-1.992 1.24-3.397" fill="#53b53d"/><path d="m9.46 4.83c-.133.072.3 1.028.929 2.457.624 1.432.825 2.152 1.296 3.372.46 1.227.6 1.624.817 2.343.293.906.501 2.035.8 3.323l.173.784.12.638c.075.363.144.583.213.577.174-.013.163-1.005.02-1.601-.127-.57-.19-.999-.276-1.432l-.126-.677a17.907 17.907 0 0 0 -.207-.791c-.613-2.009-1.039-3.299-1.274-4.069-.133-.426-.436-1.048-.705-1.668-.257-.583-.321-.858-.659-1.525-.678-1.313-1.002-1.795-1.121-1.73" fill="#fff"/><path d="m13.177 18.78h-4.834s-2.743-2.286-4.703-2.81c-1.96-.523-4.18-1.437-3.266-3.397s7.97-2.547 12.803 6.206" fill="#91cf83"/><path d="m.7 12.73c.013.151.869.141 2.127.332 1.253.214 1.814.47 2.792.862.25.09.441.197.612.28l.446.223.705.447c.62.455 1.292 1.103 1.967 1.94.323.338.535.699.721.939.183.242.317.381.379.349.16-.08-.184-.833-.492-1.241-.33-.364-.524-.67-.762-.953l-.387-.427a3.07 3.07 0 0 0 -.503-.467c-1.396-1.082-2.448-1.546-3.055-1.848a6.77 6.77 0 0 0 -.656-.211c-.253-.072-.538-.115-.813-.185-.524-.1-.745-.195-1.371-.239-1.24-.055-1.723.07-1.71.2" fill="#fff"/><path d="m7.565 18.725h16.548c.24 0 .436.195.436.436v8.274c0 .962-.78 1.742-1.742 1.742h-13.937c-.962 0-1.741-.78-1.741-1.742v-8.274c0-.24.194-.436.435-.436z" fill="#ef7457"/><path d="m7.13 23.08h17.419v1h-17.419z" fill="#f7f4f1"/></g><g transform="translate(21.067 15.677)"><path d="m20.032 0c.24 0 .435.195.435.435v5.662h-.87v-5.662c0-.24.194-.435.435-.435z" fill="#06c"/><rect fill="#43a0ff" height="6.097" rx=".871" width="21.774" y="5.661"/><path d="m20.467 11.758v1.742h-3.483v-1.742zm-15.677 0v1.742h-3.484v-1.742z" fill="#06c"/><rect fill="#c0dfff" height="1.742" rx=".871" width="17.419" x="2.177" y="7.839"/></g></g><path d="m255.348 110.394c-1.276-1.561-.614-6.432-.614-6.432.804.142.804 5.77.615 6.432m4.682 4.161c-.331-2.743-.473-15.843-.473-15.843l-3.405-10.31-3.074-1.513s.236 8.134 0 12.39c-.237 4.257-1.703 11.304 2.46 12.77 0 0-.332 7.519 6.241 6.053 0 0-1.419-.804-1.75-3.547" fill="#020241"/><path d="m256.2 83.982s-2.696 2.15-1.915 5.556c.78 3.405 1.135 2.908 1.632 4.54.496 1.631 2.766 5.675 4.894 6.597l-.544 2.294 1.324 4.776 5.344 1.797 2.932-4.21 1.466-10.734-1.702-5.912-3.83-4.066-3.064-.638z" fill="#f7d4ba"/><path d="m257.145 92.125c.12.372.066.724-.12.784-.187.06-.435-.194-.556-.567-.12-.373-.065-.724.121-.784s.435.194.555.567m6.676.307c.12.373.065.724-.121.784s-.435-.194-.555-.567-.066-.724.12-.784c.187-.06.436.194.556.567" fill="#212b36"/><path d="m255.183 89.396s1.513-.757 2.885.946m2.246-.308s2.436-1.631 4.564-.118" stroke="#ca9" stroke-linecap="round" stroke-width=".5"/><path d="m269.158 95.64s-.048-1.326-.821 0c-.774 1.326-3.908 4.018-5.043 4.775s-2.483.26-2.483.26l-.497 2.094v.37l.532 1.917.556-.29c5.96-2.983 7.756-9.126 7.756-9.126" fill="#ca9"/><path d="m250.962 112.948v15.275l-8.95 14.755h7.425s7.661-8.702 7.992-10.735c.331-2.034.426-15.654.426-15.654l-1.277-3.641z" fill="#f7d4ba"/><path d="m251.275 127.958c.14.094.267.04.37-.097.106-.136.218-.157.282-.287.063-.13.073-.18.118-.249.045-.096.19-.142.224-.288.014-.062.031-.116.025-.157.004-.028-.013-.038-.029-.06-.014-.024-.022-.061-.032-.093-.015-.048-.036-.086-.074-.107-.038-.02-.09-.018-.116-.022-.067.003-.111.034-.122.074-.037.15-.17.124-.229.256a.555.555 0 0 1 -.32.358c-.051.024-.047.12-.082.187-.033.062-.097.057-.115.145-.036.173-.027.256.1.34" fill="#ca9"/><path d="m314.439 154.161s4.044.284 4.54 0c.497-.283 2.483-1.56 4.327-1.276 1.845.284 4.43 3.547 6.897 3.618 2.467.07 5.234-.071 6.156.709s2.494 3.05 2.559 3.546c.065.497-.502 1.632-3.127 1.704-2.625.07-10.12-1.916-11.302-2.129-1.183-.213-11.043-1.135-11.043-1.135z" fill="#f7d4ba"/><path d="m265.635 131.39s-3.658 3.496-8.426 6.82-8.173 5.24-8.386 5.807c-.213.568 5.74 13.052 5.74 13.052s11-.78 15.753-2.27c0 0 2.625 4.47 10.5 5.675 7.873 1.207 21.677.52 33.074.52 0 0 3.032-3.925 1.33-8.677 0 0-7.023-.213-9.506-.497-2.483-.283-10.64-3.767-13.549-3.621 0 0 3.972-6.594 1.632-12.553-2.341-5.958-8.725-11.988-8.725-11.988z" fill="#8173cb"/><path d="m252.557 142.26c.019.166.994.146 2.45.167 1.457.034 2.144.158 3.36.253 1.218.109 1.607.16 2.301.26.878.14 1.914.42 3.123.688 1.048.215 1.856.469 1.909.312.066-.19-.783-.557-1.341-.68-1.07-.22-1.555-.466-2.692-.662l-3.95-.6c-.413-.061-1.062-.05-1.697-.061-.597-.013-.857-.074-1.557-.036-1.385.084-1.92.211-1.905.359m17.553-6.924c-.164-.036-.294.198-.384.569-.092.37-.21.53-.256.848-.046.317-.048.423-.083.603-.03.232-.177.487-.183.818-.004.286-.02.509.131.543.198.043.337-.169.334-.32-.007-.29.142-.398.173-.695.032-.512.182-.817.273-.996.05-.098.029-.274.056-.436.025-.152.093-.206.1-.39.01-.363-.011-.51-.16-.544m14.652-3.433c.008.167.557.22 1.363.404.804.204 1.142.421 1.772.694.619.302.81.421 1.138.644.198.154.424.32.628.545.106.108.217.22.337.33.11.12.227.244.357.364.442.422.73.818.868.726.171-.11-.078-.604-.31-.852-.241-.22-.388-.408-.54-.602-.167-.178-.327-.375-.598-.586a23.713 23.713 0 0 0 -1.993-1.302c-.218-.128-.6-.217-.967-.312-.343-.09-.483-.185-.903-.226-.828-.069-1.16.027-1.152.173m-3.692 17.782c.075.15.821-.132 1.953-.498 1.14-.35 1.71-.406 2.682-.613.976-.195 1.295-.238 1.864-.294.722-.072 1.595-.02 2.602.005.437-.004.825.036 1.108.047.284.008.464-.012.479-.088.04-.194-.698-.415-1.172-.428-.903-.011-1.337-.156-2.291-.095-1.62.144-2.66.288-3.284.356-.342.05-.85.225-1.351.379-.47.148-.694.155-1.23.379-1.054.452-1.426.717-1.36.85m-11.71-.432c-.165-.032-.32.374-.368.996-.046.62-.119.922-.065 1.45.029.263.061.435.091.58.025.144.051.26.084.409.083.37.12.855.391 1.337.116.207.23.384.34.495.104.114.188.167.253.125.174-.117.06-.463-.058-.652a1.265 1.265 0 0 1 -.204-.498c-.04-.159-.065-.324-.135-.542-.262-.747-.193-1.286-.16-1.583.02-.167-.042-.425-.044-.681 0-.242.06-.343.048-.626-.017-.561-.021-.782-.173-.81" fill="#6554c0"/><path d="m259.226 98.76 1.703 1.294s-.71 2.962 1.087 5.28c1.798 2.317 5.108 1.938 6.669-.71 1.56-2.648 5.533-7.862 5.533-7.862s4.161 1.761 5.911 2.849 3.453 3.358 3.83 6.148c.379 2.79.284 6.62.284 6.62s-2.506 1.845-7.282.616l6.337 7.093s1.702 2.128 2.743 2.649c0 0 1.56 1.891-3.358 5.485-4.919 3.594-12.39 5.013-16.126 4.209-3.737-.804-3.926-2.08-3.405-2.932.52-.851 1.229-4.114.378-5.722s-3.973-4.446-4.304-6.432c-.33-1.986-2.885-3.074-2.885-3.074s-4.681.946-6.1-1.276c0 0-.26-7 .721-9.033.981-2.034 3.18-3.216 3.18-3.216z" fill="#dfe3e8"/><path d="m276.164 107.651c-.168 0-.244.321-.252.8-.01.479-.09.706-.066 1.108.023.402.044.532.049.762.02.292-.068.644-.002 1.052.058.351.09.628.245.628.203 0 .293-.297.257-.482-.07-.353.052-.525.02-.898-.08-.637 0-1.05.05-1.293.028-.135-.031-.344-.04-.55-.008-.193.047-.278.013-.504-.068-.45-.12-.623-.274-.623" fill="#919eab"/><path d="m254.143 88.356s-3.57-1.466-3.145-3.453c.851-1.23 1.797-1.844 2.412-2.743.614-.898 4.587-4.87 7.897-6.384 3.31-1.513 4.73-.236 5.297 0 .567.237 3.31.048 4.918 3.736 1.608 3.689 2.79 9.222 3.5 12.012s1.56 3.83 2.128 4.446c.567.614.757 1.939.71 2.459 0 0-2.176-1.183-2.743-1.277 0 0-.332 6.337-.805 10.64-.473 4.304-.614 11.161.426 12.06 0 0-.993 1.087-2.885 0-1.891-1.088-3.972-4.304-3.688-9.6.284-5.297.52-12.911.047-15.607-.473-2.695-2.554-6.715-4.02-7.567 0 0-5.911.948-7.992-3.096 0 0-1.324 1.063-2.057 4.374" fill="#020241"/><path d="m255.916 94.078c.497 1.632 2.767 5.675 4.895 6.597 2.334-.895 3.358-1.648 3.073-2.261-2.23-4.792-8.246-5.249-7.968-4.336z" fill="#f7d4ba"/><path d="m258.99 91.926.142 4.28 1.75-.236m-.946 1.868s1.419.165 2.294-.828" stroke="#ca9" stroke-linecap="round" stroke-width=".5"/><path d="m276.322 112.806s.118 14.234.213 14.85c.094.614-4.824 7.897-7.378 11.917-2.553 4.019-5.391 8.796-5.722 8.89-.331.095-6.574.662-6.952.805-.378.141-1.655 1.229-1.655 1.229l.662 4.304s1.94-2.223 2.128-2.176c.19.047-1.75 3.358-1.75 3.358l.19 1.23s3.877-3.879 4.114-3.737c.236.142-1.939 4.54-1.466 4.588.473.047.614.094 3.405-3.358 0 0 1.371.568 2.506-.142s16.08-18.917 17.45-20.998c1.372-2.08 1.183-4.492 1.23-4.965.048-.473.582-16.004.582-16.004s-2.733 1.201-7.557.209" fill="#f7d4ba"/><path d="m276.86 127.331c.135.101.27.048.386-.094.117-.142.234-.164.308-.3.073-.139.086-.19.135-.264.051-.102.203-.157.243-.322.035-.143.072-.247-.051-.34-.163-.122-.304-.085-.316-.006-.027.15-.164.13-.223.264a.581.581 0 0 1 -.337.367c-.054.025-.055.124-.095.193-.038.064-.102.057-.126.147-.049.178-.047.264.076.355m-18.999 22.712c-.07.046-.056.184.047.382.053.099.125.212.24.335.058.06.127.125.239.184.06.032.136.054.208.057.071.005.11 0 .165-.003.38-.037.627-.058.867-.058.115.002.23.002.334.013.102 0 .206.048.223.028.142.143.304.318.41.437.12.126.213.233.385.368.06.04.123.085.218.118.097.04.22.036.275.035l.39-.024.385-.025c.119-.008.261.002.288.005.048.008.154.102.223.167l.205.199c.12.114.212.178.278.137.176-.104.012-.546-.234-.752a2.439 2.439 0 0 0 -.182-.142.714.714 0 0 0 -.237-.095c-.137-.029-.247-.035-.357-.042a3.12 3.12 0 0 0 -.696.044c-.054.01-.11.019-.147.023-.018 0-.021.008-.052-.007a.65.65 0 0 1 -.187-.142c-.125-.126-.23-.27-.328-.4l-.145-.19-.076-.09-.039-.043-.066-.054c-.183-.124-.32-.144-.426-.169-.247-.052-.574.039-.88.088-.145.023-.25.026-.355.03-.097.004-.243.01-.228.015-.076-.02-.195-.112-.274-.179l-.213-.176c-.117-.09-.194-.116-.258-.074" fill="#ca9"/><path d="m254.563 157.069 1.4 1.004 13.762 1.408-11.87 6.999z" fill="#c4cdd5"/><path d="m256.626 160.994 8.252 1.346-6.645 4.14-1.276-1.466z" fill="#c4cdd5"/><path d="m221.796 143.378-.568-1.347s.142-.64.568-.853c.425-.212 30.952 1.715 31.472 2 .52.283 4.776 23.172 4.965 23.172.19 0 11.492-6.87 11.492-6.87s.379.378.379 1.088c-.662.425-12.547 7.543-12.547 7.543l-3.863-4.895-29.368-16.456z" fill="#9ba6b3"/><path d="m221.228 142.977v-.946l31.409 1.915 4.911 23.906s.243.355-.34.355c-.582 0-28.715-1.815-28.715-1.815s-1.62.088-1.935-1.794c-.12-.713-5.33-21.62-5.33-21.62" fill="#fff"/><path d="m157.324 45.054s-1.418 2.101-3.262 2.243c-1.845.142-6.385-.496-8.3 1.49s-1.419 6.03.638 7.377 9.648 1.064 9.648 1.064l3.901-6.384.284-2.129-2.908-3.66zm15.276 9.62c.71 3.382 3.996 6.408 4.788 10.428s-.06 9.978-5.261 11.397c-5.202 1.42-8.182-2.128-7.567-5.155 0 0 1.371 0 1.513-1.276.142-1.277-3.058-5.44-3.49-8.986-.435-3.547 1.504-6.121 1.977-6.216s8.465-6.505 8.465-6.505-1.135 2.932-.425 6.313z" fill="#010042"/><path d="m173.995 48.006s-1.419 1.916-2.199 3.193-3.476 5.604-6.81 5.958c0 0-1.527-.142-2.43-1.347 0 0-2.323 2.34-2.678 4.043-.354 1.702.355 7.164.355 7.164l-3.05 2.413-4.54-5.108-2.183-8.512.552-1.207s2.908.166 4.398-.52c1.49-.685 3.76-4.09 3.83-5.013 0 0-1.915-.212-2.412-1.986-.496-1.773.382-3.334 1.397-3.547 1.015-.212 4.33-2.674 4.33-2.674l9.668-.943 2.199 1.868.284 2.743-.71 3.475z" fill="#e6c3a3"/><path d="m166.123 47.797c-.25.339-.58.52-.738.404s-.083-.485.167-.825c.25-.339.58-.52.738-.403.157.116.083.485-.167.824m5.391 2.359c-.25.339-.58.52-.738.403-.158-.116-.083-.485.167-.824s.58-.52.738-.404c.158.117.083.486-.167.825" fill="#212b36"/><path d="m166.594 44.673s1.655-.615 2.932.85m2.176 1.467s1.016-.45 1.631.189" stroke="#ad8c6d" stroke-linecap="round" stroke-width=".5"/><path d="m157.388 44.057s-.726-3.358.598-6.526c1.325-3.169 6.716-4.966 10.878-3.5 4.161 1.467 5.77 4.272 6.526 6.37.757 2.096 1.088 5.217 1.986 5.76 0 0 .461 3.514-4.38 3.235 0 0 1.495-4.062-.68-7.04 0 0-2.27.66-4.35 1.418-2.082.756-4.365 1.466-7.29.283 0 0-1.081.34-1.081.998 0 0-.3-1.943-2.207-.998" fill="#010042"/><path d="m159.884 59.83c.341-1.567 2.316-3.654 2.626-3.974l-2.726-3.002c-1.442 2.749-.764 5.287.1 6.976" fill="#ad8c6d"/><path d="m138.408 136.89-.615-3.736s-.33 1.703-.662 2.034c-.33.331-1.844.567-2.364.52s-2.46.094-2.79.378c-.332.284-.71.662-.662 1.372.047.71.614 3.121.614 4.965 0 1.845-.851 5.439 1.04 7.567 1.892 2.128 4.399 3.31 5.156 3.121.756-.19 1.418-.095 1.607-1.088.19-.992-2.08-9.269-2.08-9.269zm5.911-2.695-3.452 2.08-2.081 1.75 1.548 2.034 5.055-4.257z" fill="#d1ad8b"/><path d="m138.077 132.587s-1.553 4.682-2.55 5.817-2.7 2.79-2.936 4.02c-.236 1.229.946 2.79 2.129 3.688 1.181.899 2.411 3.084 2.742 3.623s1.04 2.848 4.824 3.396c3.783.548 5.77.075 5.817-.304.047-.378-.284-1.466-2.034-1.844s-2.364-1.23-2.837-1.844c-.473-.615-2.601-6.1-2.46-7.803.143-1.703 1.608-5.297 1.608-5.297z" fill="#e6c3a3"/><path d="m163.472 100.571s4.777 3.712 6.053 5.438c1.278 1.726 1.632 5.108 0 8.134-1.629 3.028-21.814 20.478-24.136 22.252 0 0-1.046-.568-1.153-1.455l-1.347 1.95s-4.008-.803-5.663-3.64c0 0 7.046-15.418 12.532-22.038 0 0-13.195.283-17.12-3.548-3.925-3.83 22.89-7.093 22.89-7.093z" fill="#394466"/><path d="m158.13 104.489c-.029.087.645.286 1.573 1.005a5.34 5.34 0 0 1 1.365 1.56c.211.34.367.74.509 1.165.129.408.132.87.058 1.35-.167.963-.56 1.765-.934 2.466a20.744 20.744 0 0 1 -1.185 1.899c-.81 1.168-1.634 2.23-2.692 3.585-2.13 2.702-2.828 3.573-4.027 5.151-1.506 2.002-3.376 4.384-5.371 7.257-1.72 2.478-3.067 4.44-2.94 4.53.164.116 1.714-1.91 2.61-3.215 1.717-2.497 2.681-3.62 4.561-6.202a101.063 101.063 0 0 1 4.157-5.388c1.164-1.413 2.066-2.501 2.72-3.324a28.443 28.443 0 0 0 2.602-3.98c.39-.749.65-1.304.846-1.933.102-.312.177-.648.22-1.038.04-.386.034-.856-.146-1.36a5.68 5.68 0 0 0 -1.333-2.175 5.646 5.646 0 0 0 -1.382-1.009c-.79-.395-1.196-.41-1.21-.344m-8.19 6.482c.134.101.356-.065.607-.375.252-.308.432-.407.622-.682.19-.276.241-.371.36-.522.137-.2.39-.367.562-.658.148-.257.28-.413.184-.534-.126-.164-.397-.037-.472.105-.154.27-.336.3-.515.562a2.76 2.76 0 0 1 -.724.812c-.092.071-.155.246-.254.386-.093.133-.18.155-.27.325-.175.339-.222.488-.1.58" fill="#232b40"/><path d="m151.65 54.674c.314-.222-1.845-.212-1.845-.212l-2.506 4.54-1.91 11.539-5.231 18.443 9.174 3.831 3.405 3.216.757-.473 3.405-9.742 6.148-11.492.425-7.236-1.513-9.553-.656-.282s-1.472 1.843-1.661 3.356c-.19 1.514.473 5.864-1.513 5.675-1.987-.189-7.85-10.64-6.48-11.61" fill="#fff"/><path d="m161.304 57.254s.419 2.268.277 5.626c-.142 3.357.485 8.654-.278 12.91s-3.695 4.8-5.586 9.564c-1.892 4.765-2.743 7.65-2.317 9.376.425 1.726.614 2.246.614 2.246l8.229 2.034s-2.128-3.168-3.878-4.635c-1.75-1.466-1.999-5.39-.598-7.566 1.402-2.176 4.476-6.574 4.476-6.574s4.824 11.823 6.526 12.769c1.703.946 0-13.95 0-13.95l-.615-8.56-3.358-10.664-1.513-4.375-.773.4z" fill="#72c260"/><path d="m172.6 54.674c.71 3.382 3.996 6.408 4.788 10.428s-.06 9.978-5.261 11.397c-5.202 1.42-8.182-2.128-7.567-5.155 0 0 1.371 0 1.513-1.276.142-1.277-3.057-5.44-3.49-8.986-.435-3.547.974-5.91 1.447-6.006.473-.094 7.305-7.947 1.907-1.596" fill="#010042"/><path d="m138.314 74.844c-1.04 3.358-4.257 5.108-4.257 5.108s-.473-.852-1.182-2.46c-.71-1.607-1.844-3.31-1.844-3.31s.52-.898.946-1.419c.425-.52 6.952-5.958 6.952-5.958s.425 4.681-.615 8.039m12.146-12.863c-.182-5.202-.655-7.52-.655-7.52s-6.431-.85-9.647 1.42c-3.216 2.269-16.93 13.95-17.356 14.423s-1.655 2.175-.71 4.398c.946 2.223 4.446 7.709 6.29 9.459.048.283-6.431 5.533-6.431 5.533l1.513 6.762 18.113-3.83 1.75-4.446s3.594-5.55 5.202-11.359c1.607-5.807 2.113-9.638 1.93-14.84" fill="#72c260"/><path d="m139.207 66.704c.115.123.35.007.626-.242.276-.248.46-.311.671-.542.211-.232.27-.316.397-.442.151-.17.41-.293.596-.559.159-.229.293-.4.187-.513-.14-.147-.37-.055-.449.07-.152.239-.332.242-.52.464a2.264 2.264 0 0 1 -.766.653c-.096.051-.174.206-.284.321-.104.11-.189.114-.294.26-.207.287-.27.419-.164.53m23.297 13.244c.145.085.407-.205.743-.673.339-.467.57-.635.851-1.024.286-.388.374-.517.557-.723.22-.275.577-.508.894-.875.275-.319.532-.526.44-.659-.11-.166-.475-.02-.627.16-.294.336-.53.395-.834.75a9.244 9.244 0 0 1 -1.09 1.182c-.126.114-.236.357-.379.567-.133.198-.239.252-.37.503-.253.497-.316.713-.185.792" fill="#3d842d"/><path d="m95.498 100.669s.354-.567 3.83-2.199c3.476-1.631 5.746-2.766 8.726-3.546 2.979-.78 5.75-1.632 9.33-3.264 3.58-1.631 7.056-2.34 10.32-2.979 3.261-.638 11.703-1.703 16.456-.851 4.753.851 13.478 5.675 14.897 6.668 1.418.993 3.76 1.915 6.03 2.553 2.269.639 5.39 2.2 5.532 3.193s-1.56 1.702-3.973 2.27c-2.411.568-3.688 1.276-5.462 1.773-1.773.497-7.022 2.554-12.555 3.263-5.533.71-20.643 1.277-27.098 1.206-6.456-.07-13.124-1.56-13.904-1.915s-2.341-1.348-3.405-1.206-5.107.07-6.526-.426-4.327-2.411-2.2-4.54" fill="#9d92d6"/><path d="m98.204 100.6c-.243-.047-.443.345-.41.955.047.6.014.95.323 1.44.15.245.324.36.43.473l.377.253c.192.068.378.22.611.278.114.034.236.082.362.093.126.008.257.007.39-.009.456-.081.78-.186.748-.407-.051-.3-.378-.412-.57-.34-.185.05-.323.011-.457-.02-.13-.05-.247-.116-.426-.142-.14-.042-.289-.07-.38-.155-.05-.037-.099-.071-.141-.108l-.094-.13c-.063-.078-.09-.17-.113-.246a.678.678 0 0 1 -.038-.205c-.013-.127-.16-.289-.21-.498-.047-.195.027-.288-.033-.52-.108-.473-.138-.675-.368-.712" fill="#8173cb"/><path d="m134.672 81.181s-1.986 3.263-5.438 3.547c0 0 3.405 3.878 4.918 4.73 1.513.85 2.79.945 3.5 1.37.709.426 3.594 1.467 5.249 1.609s4.162.567 5.013 1.276c.85.71 2.6 2.365 3.216 2.743.614.379 1.466.095 1.56 0 .095-.094-.236-.283-.426-.425-.189-.142 0-1.183-.449-1.845 0 0 .355-.614 0-1.37-.354-.758-3.76-4.305-4.28-4.352s-5.013-.19-6.053-.615c-1.04-.426-2.79-1.371-3.452-2.175s-3.358-4.493-3.358-4.493" fill="#e6c3a3"/><path d="m128.717 84.39c-.045.071.052.206.255.384.032.025.039.036.096.077l.074.055c.026.021.053.04.087.03l.189-.016.139-.016c.19-.024.402-.068.629-.126.898-.255 1.347-.364 2.037-.763.672-.427.859-.607 1.203-.905.423-.382.978-.85 1.341-1.584l.08-.147.101-.182c-.027-.062-.067-.122-.098-.18l-.079-.136a6.464 6.464 0 0 0 -.21-.32c-.128-.177-.229-.274-.298-.24-.09.046-.093.205-.049.391a1.86 1.86 0 0 0 .159.422c.006.01.013.018.023.027.013.023.004.027-.021.08l-.106.177c-.07.112-.14.212-.226.3a40.3 40.3 0 0 1 -.558.621c-.376.448-.77.743-1.108.943-.337.205-.624.313-.833.393-.234.082-.56.297-.917.427-.336.126-.5.115-.896.247l-.274.083-.12.034c-.042.01-.027.013-.045.02-.007.025-.175-.068-.254-.091-.182-.068-.28-.069-.32-.005" fill="#3d842d"/><path d="m171.796 51.199c-.78 1.276-3.476 5.603-6.81 5.958 0 0-1.527-.142-2.43-1.348 0 0-3.387-5.816-3.316-6.739 0 0 13.336.851 12.556 2.129z" fill="#e6c3a3"/><path d="m169.526 50.536-1.135 1.963-.662-.449" stroke="#ad8c6d" stroke-linecap="round" stroke-width=".5"/><path d="m164.489 51.518 3.098 2.787s-.993 1.15-2.483.157c-1.294-.864-.615-2.944-.615-2.944" fill="#fff"/><path d="m199.762 43.767s.142 4.398 2.46 8.276c2.317 3.878 7.377-1.324 7.377-1.324s1.466-8.134 1.513-8.276-.575-.615-.575-.615-1.222-4.35-1.6-7.85c-.379-3.5-5.297 6.81-5.297 6.81l-3.878 2.98z" fill="#f7d4ba"/><path d="m205.2 46.226c2.824-2.266 4.217-5.64 4.685-6.984-.355-1.529-.758-3.504-.948-5.264-.379-3.5-5.297 6.81-5.297 6.81l-3.878 2.98s.048 1.466.534 3.45c.886.5 2.564.887 4.904-.992" fill="#ca9"/><path d="m200.022 46.203-1.702 9.435 3.603 19.933.37 8.016v5.958h1.348s3.83 1.349 8.299-.85c4.47-2.2 1.986-15.678 1.986-15.678l-2.81-14.825-3.409-8.419s-1.182 2.413-3.452 2.176c-2.27-.236-4.232-5.746-4.232-5.746" fill="#4d5d8c"/><path d="m196.05 138.35 2.128 5.108-1.561 2.995-3.759.836-1.419-1.49-1.419-2.979 2.2-4.47 2.695-.709zm-14.897 5.179-2.057 4.895 1.029 3.05h4.078l1.916-1.49 1.49-4.823z" fill="#ca9"/><path d="m191.207 145.311s5.08.417 6.557-2.846c0 0 1.124 1.49 1.974 3.689.852 2.199.923 4.114.852 4.61-.071.497-.993 1.065-2.412 1.348-1.419.284-2.34.213-2.553.355s-2.484 1.632-5.18 1.844c-2.694.213-4.752 0-4.752 0s-.283 2.341-2.057 2.696c-1.773.355-3.192-.567-4.54-.638s-10.276 1.357-12.404-2.119c0 0 1.348-2.27 2.341-2.34.993-.072 5.098-1.074 6.233-1.287 1.134-.213 3.088-.433 4.488-3.763 0 0 2.463 3.692 6.578 2.344l-.213.78s1.844-.071 3.334-1.277 1.754-3.395 1.754-3.395" fill="#020241"/><path d="m185.961 150.411c-.167-.024-.277.21-.337.573-.061.363-.165.525-.186.834-.02.31-.013.41-.034.587-.012.224-.138.48-.116.8.019.275.02.49.174.513.201.028.323-.185.306-.33-.03-.28.11-.393.118-.682-.01-.495.115-.798.19-.977.042-.098.007-.266.02-.424.013-.148.077-.204.068-.381-.018-.351-.051-.491-.203-.513m-13.889 1.056c-.09.143 0 .29.162.486.16.203.156.348.275.519.114.178.155.238.2.353.066.147.03.344.115.554.078.183.107.34.265.341a.239.239 0 0 0 .245-.303c-.093-.214.012-.34-.076-.568-.183-.37-.232-.629-.273-.795-.02-.092-.145-.178-.232-.277-.083-.094-.078-.174-.206-.26-.255-.162-.394-.176-.475-.05m1.749 0c-.071.153 0 .27.14.4.14.136.14.256.25.364.109.115.15.152.197.231.068.102.042.257.14.398.091.125.135.24.291.222.202-.02.268-.184.215-.269-.108-.155-.014-.272-.117-.44-.2-.264-.255-.467-.299-.601-.023-.074-.139-.12-.221-.185-.077-.063-.074-.135-.19-.182-.226-.087-.341-.074-.406.062m1.466-.476c-.075.152-.002.274.145.404.146.133.148.255.262.361.112.11.153.146.2.224.07.097.042.248.134.385.087.122.119.239.277.233.203-.004.281-.168.23-.26-.102-.162-.006-.28-.113-.454a1.891 1.891 0 0 1 -.315-.601c-.025-.072-.143-.113-.225-.178-.079-.06-.076-.13-.19-.176-.226-.082-.336-.072-.405.063m12.768-1.223c-.064.156.035.28.212.411.177.136.197.266.331.375.132.115.179.153.234.236.084.104.063.267.157.417.09.134.113.265.274.266.202.006.287-.176.234-.28-.104-.185-.011-.317-.135-.508a3.079 3.079 0 0 1 -.396-.642c-.036-.077-.165-.115-.26-.18-.091-.058-.099-.132-.225-.174-.25-.075-.366-.06-.426.08m1.229-.623c-.043.163.044.264.19.362.148.104.151.218.251.301.1.09.134.124.174.192.052.094.008.22.074.36.064.125.08.242.236.261.201.03.301-.115.27-.21-.078-.172.037-.274-.049-.462a3.716 3.716 0 0 1 -.305-.625c-.033-.072-.155-.108-.245-.164-.086-.05-.094-.122-.214-.15-.237-.045-.341-.01-.382.135m.956-.615c.005.17.135.24.328.294.195.059.243.171.38.227.137.063.182.088.245.149.085.081.083.224.185.355.097.116.139.239.297.221.202-.016.264-.196.207-.29-.122-.166-.04-.303-.187-.478a7.946 7.946 0 0 1 -.53-.547c-.057-.064-.194-.061-.304-.088-.105-.024-.138-.09-.27-.082-.256.025-.353.088-.351.24" fill="#4e4e7a"/><path d="m189.027 113.877s-2.98-6.242-2.412-6.384l4.824-1.206zm37.502-27.973-7.354-2.53-16.883 2.022-7.235 3.937-22.061 9.79s-2.2 1.134-2.767 2.41c-.568 1.278-1.277 3.264.284 7.946 1.56 4.682 12.981 22.203 12.981 22.203s-2.482 8.726-2.553 9.506-1.206 1.206-.852 2.2c3.547 4.539 9.364 2.694 9.364 2.694l3.76-5.745c2.128-.214 4.823-2.128 5.107-2.483s-1.064-2.199-1.631-3.05c5.503-8.207 7.519-22.795 7.614-23.694 3.735-.803 20.382-3.641 22.652-10.545 2.27-6.905-.426-14.66-.426-14.66z" fill="#dfe3e8"/><path d="m191.432 106.049c.166.033.33-.444.675-1.106.173-.33.345-.548.512-.742l.551-.61c.425-.484.563-.644.823-.91.322-.347.794-.68 1.229-1.18.375-.433.685-.761.58-.875-.137-.15-.555.113-.75.345-.372.444-.66.55-1.073.997-.69.78-1.213 1.212-1.521 1.486-.172.15-.36.472-.536.772-.165.284-.283.386-.415.752-.24.728-.22 1.043-.075 1.07m-9.453 2.69c.04.164.37.16.835.054.465-.105.705-.082 1.088-.2.383-.12.503-.171.725-.23.277-.09.64-.088 1.018-.25.326-.14.586-.238.55-.388-.05-.198-.359-.214-.528-.134-.326.151-.521.074-.874.196-.597.23-1.016.25-1.264.26-.137.005-.325.112-.522.17-.185.054-.28.02-.491.108-.417.173-.574.266-.537.414m7.02 5.449c-.161-.05-.623 1.191-1.21 3.066s-.939 2.746-1.403 4.33c-.463 1.584-.599 2.096-.874 3.003-.333 1.15-.844 2.508-1.273 4.126-.37 1.396-.674 2.494-.526 2.54.194.06.64-1.082.828-1.816.361-1.407.686-2.046 1.105-3.518a61.62 61.62 0 0 1 1.612-5.063c.19-.52.387-1.36.627-2.168.226-.762.38-1.076.622-1.975.477-1.78.638-2.48.492-2.525m1.819 29.739c.142.091.626-.522 1.257-1.49.632-.968.996-1.387 1.5-2.217.506-.83.656-1.103.953-1.575.363-.604.898-1.272 1.373-2.136.41-.746.744-1.327.614-1.41-.17-.11-.635.445-.845.84-.403.756-.73 1.04-1.187 1.815a21.478 21.478 0 0 1 -1.73 2.603c-.2.259-.424.716-.684 1.138-.246.398-.402.54-.669 1.018-.528.948-.711 1.332-.582 1.414" fill="#919eab"/><path d="m197.587 41.829s-3.451 1.606-5.295 5.106-2.601 6.668-2.932 10.498c-.331 3.831-.663 5.676-1.466 8.23-.805 2.553-2.697 10.026-2.697 10.026h9.033s2.175-6.952 2.412-8.607c0 0 3.547 8.702 3.783 9.978.237 1.277-.52 7.52-.71 7.85-.189.332 3.216-.472 3.216-.472s.237-7.425 0-12.674c-.236-5.25-2.08-15.133-2.553-18.87-.473-3.735-.245-6.401-.245-6.401l-.166-2.206-2.38-2.459z" fill="#ef7457"/><path d="m196.121 53.673c.208.236 1.59-1.987 2.2-1.702.43.2 1.32 1.099 2.137 1.522-.03-.212-.057-.415-.08-.598-.473-3.736-.246-6.402-.246-6.402l-.165-2.205-1.447-1.495c-.546.696-1.459 1.966-1.719 2.977-.378 1.47-.888 7.666-.68 7.903" fill="#ec5632"/><path d="m209.542 37.673s.767-.243 2.516 1.27c0 0 3.784 1.561 6.243 1.94 2.46.378 6.384 1.465 7.992 3.12 1.608 1.656 2.128 3.878 3.169 8.23 1.04 4.35 4.73 23.645 4.965 25.3.237 1.656-1.466 3.83-3.073 4.635-1.608.804-2.79 1.04-2.79 1.04s.33 1.088.756 1.514c.426.425.426 1.135-.142 1.513s-10.12 4.729-17.923 3.263c0 0-.095-.804.378-2.648.473-1.845 1.702-8.23.756-12.675-.945-4.445-3.263-12.295-4.066-14.896-.804-2.601-1.736-6.676-.821-9.155.915-2.48 3.147-7.747 2.765-9.314-.382-1.568-.725-3.137-.725-3.137" fill="#ef7457"/><path d="m209.886 51.356c.457-.237 3.94 2.033 4.224 1.891.284-.141-.378-9.127-.71-11.419-.15-1.044-.693-2.053-1.24-2.843l-.101-.041c-1.75-1.515-2.517-1.27-2.517-1.27s.344 1.568.725 3.136c.383 1.567-1.85 6.835-2.765 9.314-.39 1.054-.442 2.397-.316 3.793.788-.805 2.36-2.386 2.7-2.561m9.179 3.996c-.163.041.11 1.435.617 3.48.505 2.047.673 3.04 1.128 4.751.455 1.712.615 2.258.867 3.242.334 1.241.627 2.769 1.13 4.493.435 1.486.765 2.663.914 2.626.197-.05-.035-1.343-.27-2.122-.446-1.492-.513-2.256-.947-3.84-.762-2.7-1.128-4.487-1.344-5.54-.117-.583-.399-1.462-.629-2.339-.216-.824-.253-1.198-.53-2.157-.548-1.898-.787-2.632-.936-2.594" fill="#ec5632"/><path d="m215.381 79.543s-4.93 2.164-5.604 2.27c-.674.107-7.023-.745-7.52-.532-.496.213-5.568 2.98-5.568 2.98l.496 5.355s4.257-1.56 4.434-1.348c.178.213-4.327 2.412-4.256 2.66.07.249 5.673.32 5.673.32s7.344-4.22 8.23-4.47c.887-.247 6.668-1.624 6.597-1.787 0 0-2.943-1.546-2.482-5.448" fill="#f7d4ba"/><path d="m226.343 73.947c-.044-.159-2.21.362-5.287 1.56a58.27 58.27 0 0 0 -3.703 1.575c-.52.25-1.028.494-1.545.782l-.448.245-.097.056c-.033.018-.029.067-.045.1l-.056.196-.057.24c-.066.324-.11.663-.13 1.024-.06 1.446.268 2.39.593 3.11.353.716.716 1.267 1.307 1.841.173.196.39.351.597.53l.167.138.135.111.183-.001.429-.01a31.59 31.59 0 0 0 1.744-.102c1.21-.1 2.516-.283 3.892-.592 2.376-.53 4.172-1.223 4.122-1.359-.034-.097-.54-.003-1.188.151-.65.148-1.445.348-2.055.504a21.679 21.679 0 0 1 -2.96.56c-.906.11-1.831.204-3.097.295-.27.02-.535.035-.792.046-.162-.001-.052.034-.19-.066l-.285-.23c-.197-.144-.35-.323-.513-.486-.168-.158-.3-.34-.431-.515a5.448 5.448 0 0 1 -.97-2.132 6.09 6.09 0 0 1 .019-2.62 3.65 3.65 0 0 1 .08-.307c.002-.001.004-.004.008-.003l.008-.003.07-.035c.806-.435 2.054-1.129 3.336-1.705 1.21-.534 1.762-.703 3.198-1.282 2.857-1.122 4.007-1.46 3.96-1.616m-34.045-17.745c-.151.072.137.86.63 2.003.491 1.145.645 1.722 1.062 2.68.415.96.555 1.265.774 1.823.292.702.527 1.59.93 2.57.354.843.589 1.525.742 1.478.192-.058.047-.83-.143-1.276-.361-.854-.395-1.319-.766-2.222a34.47 34.47 0 0 1 -1.193-3.167c-.11-.337-.375-.819-.595-1.31-.208-.46-.245-.684-.516-1.212-.54-1.043-.787-1.432-.924-1.367" fill="#ec5632"/><path d="m197.587 98.862 14.377-7.85s.425.237.33.946l-13.974 7.803z" fill="#919eab"/><path d="m197.209 90.681 14.755.331-13.999 7.85z" fill="#c4cdd5"/><path d="m166.186 76.281s-.214-.851.638-.993c.851-.142 28.446 0 28.446 0s.851-.205 1.064.465 2.38 22.873 2.38 22.873.387.851-.394 1.135h-28.755s-.967-.284-1.11-1.277c-.14-.993-2.269-22.203-2.269-22.203" fill="#fff"/><path d="m193.426 28.256s-.426 3.617.354 5.32c.78 1.702 1.065 2.766 1.278 3.901.212 1.135 1.915 6.172 5.532 7.59 0 0 2.27.426 5.108-2.057 2.837-2.482 2.696-3.972 2.696-3.972v-2.838l1.206-2.27s1.276-1.773.85-3.475c-.425-1.703-1.205-3.193-1.205-3.193l-6.1-5.249-5.109 1.348-3.901 3.972z" fill="#f8d4b8"/><path d="m199.763 32.323s1.534-1.183 3.274 0m-8.667.66c.417-.3 1.028-.537 1.752-.188" stroke="#ca9" stroke-linecap="round" stroke-width=".61"/><path d="m197.919 34.64.401 5.013h1.647m-.63 1.655s1.655.394 3.122-.867" stroke="#ca9" stroke-linecap="round" stroke-width=".5"/><path d="m201.647 34.873c.064.32-.05.613-.255.654-.205.04-.423-.186-.487-.506s.05-.612.255-.653c.206-.041.424.185.487.505m-5.489.906c.064.32-.05.613-.255.655-.205.04-.423-.186-.487-.506s.05-.613.255-.654c.206-.041.423.185.487.505" fill="#212b36"/><path d="m191.108 23.527s-.946-.047-1.324.946.005 6.053 3.526 6.857c0 0-.121-1.419.4-1.702 0 0 1.465.567 3.404-.237 1.94-.804 2.601-1.608 3.121-2.317.52-.71.568-1.182 1.135-1.23.568-.047 1.419-.142 1.561.426s-.236 2.743 1.04 3.546c1.278.805 1.94 1.75 2.176 2.27s.71 1.518.946 1.469c.236-.05.567-.475.52-.854-.047-.378-.842-2.033.005-3.215.846-1.182 2.422-.572 2.649.314 0 0-.006-4.098-1.282-6.84-1.278-2.744-3.69-5.534-8.324-4.446s-5.155 3.594-9.553 5.013" fill="#8f4c02"/><g transform="translate(73.026 110.836)"><use fill="#e6c3a3" xlink:href="#c"/><path d="m11.984-10.255-5.486-1.938-1.31 1.685-1.312-1.685-5.486 1.938-.567 4.54.756 1.797s.473 4.824 1.892 6.48c1.419 1.653 3.121 2.883 4.02 3.168.014.005.027.006.041.01.062.032.285.122.655.111.37.01.594-.08.655-.11.015-.005.027-.006.041-.011.9-.284 2.601-1.514 4.02-3.169s1.892-6.479 1.892-6.479l.756-1.796-.567-4.54z" fill="#c9a788" mask="url(#f)"/></g><g fill="#e6c3a3"><path d="m71.936 105.66s-1.701-.237-1.796 1.087 1.276 3.547 2.459 2.46c1.182-1.089-.664-3.548-.664-3.548"/><path d="m85.01 99.276-5.486-1.939-1.309 1.685-1.314-1.685-5.485 1.939-.567 4.54.756 1.797s.473 4.824 1.892 6.479 3.121 2.885 4.02 3.168c.014.005.027.006.041.01.062.032.285.122.655.112.37.01.594-.08.655-.111.015-.005.027-.006.041-.01.9-.284 2.601-1.514 4.02-3.17 1.419-1.654 1.892-6.478 1.892-6.478l.756-1.797z"/><path d="m84.49 105.66s1.702-.237 1.797 1.088c.094 1.324-1.277 3.547-2.46 2.46-1.181-1.089.663-3.548.663-3.548"/></g><path d="m73.734 105.849s.898-.85 2.175-.52m4.114-.077s1.372-.065 2.176.786" stroke="#ad8c6d" stroke-linecap="round" stroke-width=".61"/><path d="m78.051 107.571.104 3.055h.591m-1.844 1.088s1.371.945 2.838 0" stroke="#ad8c6d" stroke-linecap="round" stroke-width=".5"/><path d="m75.436 107.859c0 .274-.138.497-.307.497-.17 0-.308-.223-.308-.497s.138-.497.308-.497.307.223.307.497m5.661 0c0 .274-.137.497-.307.497s-.308-.223-.308-.497.138-.497.308-.497.307.223.307.497" fill="#212b36"/><path d="m66.451 160.943-.899 2.554 4.635.236v-1.749zm22.274-1.797s1.371.52 1.844 1.183c.473.661.615 1.655.615 1.655v4.568h-5.24s2.45-2.724 2.78-7.406" fill="#c9a788"/><path d="m55.215 156.139s-4.183.837-3.51 6.2c.672 5.363 5.425-4.781 5.425-4.781z" fill="#232b40"/><path d="m56.634 156.849s-3.973 1.521-4.682 4.094c-.71 2.572.073 5.382.675 5.608.602.227 3.368.014 6.276-.553 2.909-.567 3.618-.284 4.399-.496.78-.213 3.192-.989 3.334-3.758.142-2.767-10.002-4.896-10.002-4.896" fill="#394466"/><path d="m62.522 159.147s-3.33.61-3.368 1.319c-.038.71.463 3.268.463 3.268s4.394 1.418 7.019-1.989c2.624-3.407-4.115-2.598-4.115-2.598m40.104.302s2.602-.16 4.516 2.096c1.915 2.255 2.332 7.37-1.632 7.047-3.963-.323-2.884-6.253-2.884-6.253z" fill="#232b40"/><path d="m89.926 159.758s.068-.214.555-.285c.486-.07 2.756-1.622 3.749-1.13.993.491 2.625 1.162 3.902 1.252s5.015-1.044 6.834 1.013c1.82 2.057 2.955 5.746 1.536 7.236-1.419 1.489-4.043.283-6.242.354-2.2.071-7.165-.496-7.732-.425-.568.07-1.695-.355-1.557-2.27.138-1.916.032-5.002-.402-5.174-.688-.274-.643-.571-.643-.571" fill="#394466"/><path d="m96.748 164.084s-1.124-1.97-3.476-2.27-2.71.355-2.791 1.135-.188 3.37.415 4.079c.603.71 4.47 1.206 5.852-.142.462-1.277 0-2.802 0-2.802" fill="#232b40"/><path d="m93.692 164.015c-.16-.048-.304.169-.358.52-.051.351-.135.523-.102.831.045.307.085.401.128.575.06.21.076.515.303.768.19.215.385.33.483.225a.286.286 0 0 0 -.006-.412.362.362 0 0 1 -.14-.236c-.025-.081-.032-.169-.085-.275a1.018 1.018 0 0 1 -.068-.827c.024-.088-.029-.226-.027-.364.003-.13.064-.178.053-.332-.018-.306-.032-.43-.18-.473m-32.302-3.513c-.097.14 0 .298.15.543.147.249.12.41.211.628.085.226.116.305.135.446.044.18-.045.4.003.658.036.227.037.412.191.44.2.037.319-.16.3-.294-.048-.255.083-.37.04-.642-.1-.452-.114-.751-.126-.945-.006-.106-.12-.232-.2-.364-.078-.122-.063-.208-.194-.33-.263-.232-.425-.262-.51-.14" fill="#4d5d8c"/><path d="m62.431 146.472s-6.479.094-7.377.662c-.899.567-2.601 3.878-2.412 5.25.189 1.37.851 3.215 2.317 4.113 1.466.9 9.979 5.061 14.471 6.243 0 0 .851 2.601 1.183 2.601.33 0 2.459-.52 3.877-1.324 0 0 8.844 3.452 10.83 3.168 0 0 3.405-2.884 3.405-8.039 0 0 2.223-.047 3.216-.331s4.209-2.175 5.628-2.838c1.418-.661 6.762-4.019 7.377-7.66.189-1.372-.946-2.98-2.412-4.21-1.844-.615-4.161 0-4.161 0l-12.25 2.412-16.03-.473z" fill="#8c6b54"/><path d="m69.869 162.841c-.038.165.22.303.627.409.408.107.584.23.934.29.35.058.464.064.663.107.254.039.536.197.9.215.314.015.559.04.594-.11.048-.198-.186-.346-.353-.348-.318-.005-.437-.159-.763-.202a2.859 2.859 0 0 1 -1.097-.312c-.108-.055-.301-.04-.48-.073-.167-.031-.226-.102-.428-.115-.4-.025-.56-.01-.597.14m-7.768-14.391c-.011.081.467.219 1.288.516.82.295 1.986.737 3.35 1.338 2.727 1.242 4.041 1.838 6.382 2.763l4.458 1.714c1.71.65 3.737 1.534 6.143 2.392 2.076.74 3.712 1.33 3.767 1.185.072-.189-1.636-.94-2.728-1.322-2.09-.733-3.051-1.234-5.239-2.052-3.746-1.377-6.121-2.415-7.515-3.035-.773-.343-2.008-.786-3.19-1.285-1.105-.473-1.565-.769-2.9-1.277-2.651-.994-3.797-1.088-3.816-.937m19.336 7.061c.106.132.874-.384 1.95-1.232 1.078-.847 1.638-1.191 2.523-1.927.886-.737 1.161-.983 1.675-1.399.64-.536 1.485-1.097 2.356-1.876.75-.673 1.351-1.194 1.255-1.315-.127-.159-.85.302-1.24.66-.747.685-1.208.897-2.022 1.588a30.033 30.033 0 0 1 -2.929 2.272c-.32.219-.751.639-1.206 1.012-.428.352-.651.46-1.137.89-.962.854-1.32 1.208-1.224 1.327" fill="#734b2e"/><path d="m72.694 113.699-10.075 3.594s-1.04.378-1.702 1.702c-.661 1.325-4.823 10.783-4.823 10.783s2.622 4.209 8.524 3.83l.698-3.31s1.135 3.641 1.608 6.479.19 5.107.047 5.533c-.142.426-.33.71-.236.993.094.284.52 1.04.52 1.04l3.547 3.705h12.39l4.635-2.57s.993-2.222.898-3.073c-.094-.852-.472-2.932.284-6.621.757-3.69 1.371-5.25 1.371-5.25l.946 2.98s5.912.378 8.087-3.83l-4.209-10.027s-.898-1.656-2.128-2.318-9.884-3.452-9.884-3.452l-4.303 3.736-.837 2.885-1.244-2.838-4.115-3.972z" fill="#ffc95c"/><path d="m73.355 111.91s-1.513.89-1.678 2.663c-.166 1.774.898 5.085 1.678 5.794 0 0 .872-2.124 3.345-2.8 0 0-2.753-2.45-2.895-2.899-.142-.45-.544-1.939-.119-2.317l-.33-.441zm9.574.18-.328.427s.804 1.986-3.854 4.941l2.767 2.743s2.595-2.708 2.175-5.651c-.257-1.915-.76-2.46-.76-2.46" fill="#fff7e7"/><path d="m64.283 126.795c-.156.066-.13.318-.013.662.115.344.095.532.207.813.111.282.155.37.204.536.072.208.047.48.154.762.091.246.122.443.279.446.201.007.29-.25.231-.396-.1-.273-.009-.426-.105-.71a2.839 2.839 0 0 1 -.227-.995c-.006-.11-.113-.247-.175-.395-.058-.14-.03-.22-.123-.374-.188-.303-.292-.408-.432-.349m27.239.007c-.15-.078-.345.14-.512.518-.165.378-.31.535-.4.873-.086.338-.095.451-.146.644-.047.247-.21.524-.21.887-.002.31.004.553.155.571.203.024.325-.203.315-.359-.014-.3.134-.414.177-.72.054-.53.248-.834.358-1.007.065-.095.068-.278.123-.44.051-.152.128-.196.17-.38.087-.368.107-.517-.03-.587" fill="#ba7d00"/><path d="m71.605 105.612s.048-1.135 0-1.844c-.047-.71-.33-2.79.426-3.736 0 0 2.79 1.655 4.682 1.088 0 0-.19 1.182-.804 1.418 0 0 3.121.568 5.628-2.08 0 0 1.56.331 2.175 1.986s.52 1.844.662 1.939c.142.094.284.425.284.425l-.168.851s1.357-.255 1.708.7c0 0 .024-1.74.093-1.929.07-.189.92-.804.778-1.75-.141-.945-.374-2.742-.778-3.5-.404-.756-.362-1.181-.714-1.418-.352-.236-1.723-1.419-2.48-2.696-.755-1.276-3.83-1.75-5.485-1.276-1.655.473-3.925 1.75-4.87 1.844-.946.095-1.656 1.135-2.176 2.128s-.52 1.703-.946 2.223c-.425.52-.851 1.891-.425 2.932.425 1.04.756 1.513.662 1.844-.095.331.283 1.986.283 1.986s.095-1.276 1.466-1.135" fill="#8e4c11"/><path d="m85.322 153.672h-15.02a.437.437 0 0 1 -.435-.435v-15.552c0-.239.196-.435.435-.435h15.02c.24 0 .435.196.435.435v15.552c0 .24-.196.435-.435.435" fill="#fff"/><path d="m71.889 139.343a.426.426 0 1 1 -.851 0 .426.426 0 0 1 .851 0" fill="#919eab"/><path d="m57.134 130.298-3.086 8.867s-.567 1.525 0 2.483c.568.958 2.519 3.724 7.413 5.107 4.895 1.384 6.207 1.81 6.74 2.27.531.461 3.617 2.625 4.149 2.625s3.192-1.135 3.37-2.164c0 0 .78-.496.531-1.028 0 0 .453-.425.05-.745 0 0-.05-1.064-.404-1.064 0 0-2.554.639-3.122.39-.567-.248-2.908-2.554-2.908-2.554v-1.95s-1.17.32-1.738 1.206c0 0-.248.567-.957.39-.71-.178-3.05-2.27-3.937-3.156-.887-.888-1.88-1.632-1.88-1.632l2.66-6.207z" fill="#e6c3a3"/><path d="m58.316 137.999c.009.168.198.236.487.28.29.049.407.156.643.2.238.046.317.059.448.108.171.054.318.222.552.304.208.067.354.16.46.04.135-.15.03-.353-.095-.4-.239-.08-.275-.246-.524-.334a2.91 2.91 0 0 1 -.821-.356c-.085-.049-.24-.025-.379-.04-.132-.012-.182-.077-.342-.058-.313.04-.436.104-.43.256m13.152 9.27c-.089.143.154.386.589.629.437.24.617.418 1.052.544.11.03.21.046.3.057.095.007.188.01.249 0 .134-.014.228-.035.353-.057.305-.07.684-.072 1.074-.252.334-.156.595-.277.547-.423-.065-.193-.376-.187-.543-.1-.323.164-.523.095-.873.208-.293.104-.57.144-.713.104-.172-.045-.314-.138-.41-.2-.108-.073-.318-.101-.505-.184-.176-.08-.224-.166-.439-.245-.425-.16-.6-.212-.68-.08" fill="#c9a788"/><path d="m71.467 148.451c-.086.144.164.387.618.604.46.206.659.38 1.151.418.259.004.409-.043.526-.073l.33-.095c.291-.101.67-.136 1.04-.354.317-.187.564-.335.5-.476-.083-.184-.39-.148-.548-.046-.304.196-.508.145-.847.29-.286.134-.54.196-.733.203-.188.009-.31-.052-.413-.096-.108-.049-.312-.05-.5-.115-.178-.062-.231-.144-.446-.209-.426-.133-.599-.184-.678-.05" fill="#c9a788"/><path d="m71.041 149.444c-.066.154.212.356.678.525.467.164.674.31 1.108.372.22.025.369.03.504.02.127-.005.268-.035.377-.063.302-.092.682-.128 1.052-.348.316-.19.56-.342.495-.482-.088-.182-.392-.142-.548-.039-.3.198-.504.147-.838.287-.141.064-.28.11-.392.132a.84.84 0 0 1 -.304-.01c-.194-.033-.344-.103-.451-.15-.12-.059-.331-.052-.529-.106-.186-.048-.247-.128-.47-.17-.443-.087-.623-.11-.682.032" fill="#c9a788"/><path d="m98.479 130.298 3.086 8.867s.567 1.525 0 2.483c-.568.958-2.519 3.724-7.414 5.107-4.894 1.384-6.206 1.81-6.739 2.27-.531.461-3.617 2.625-4.15 2.625-.531 0-3.191-1.135-3.369-2.164 0 0-.78-.496-.532-1.028 0 0-.452-.425-.048-.745 0 0 .048-1.064.403-1.064 0 0 2.553.639 3.121.39.568-.248 2.908-2.554 2.908-2.554v-1.95s1.171.32 1.738 1.206c0 0 .249.567.958.39.71-.178 3.05-2.27 3.937-3.156.887-.888 1.88-1.632 1.88-1.632l-2.66-6.207 6.88-2.838z" fill="#e6c3a3"/><path d="m97.296 138.015c.01-.17-.22-.254-.546-.223-.323.034-.495-.01-.759.09-.26.103-.334.16-.48.224-.172.098-.439.129-.639.347-.172.183-.289.338-.189.45.137.152.33.11.397.016.138-.179.29-.131.473-.26.315-.241.597-.23.746-.221.085.009.194-.078.317-.107.115-.027.172.02.305-.028.264-.092.369-.134.375-.288m-13.142 9.267c-.09-.143-.403-.034-.828.184-.427.214-.67.241-1.009.382-.086.034-.15.054-.206.07-.052.01-.083.023-.136.022-.092.006-.18 0-.288-.014-.283-.026-.604-.195-1.013-.243-.356-.042-.632-.1-.68.048-.065.194.202.374.396.392.37.035.508.202.899.255.341.028.601.084.893.065.258-.028.428-.068.565-.091.147-.028.329-.173.517-.276.177-.099.282-.09.472-.234.374-.286.498-.43.418-.56" fill="#c9a788"/><path d="m84.153 148.465c-.087-.146-.397-.043-.828.144-.431.177-.676.18-.995.243-.15.022-.27.01-.374 0a2.049 2.049 0 0 1 -.298-.052c-.28-.057-.582-.252-.983-.34-.35-.075-.616-.16-.68-.02-.085.187.163.394.354.43.364.072.486.25.87.34l.835.177c.245.05.458.044.596.041.163-.003.367-.129.567-.216.188-.085.294-.068.495-.203.393-.268.518-.415.441-.544" fill="#c9a788"/><path d="m84.578 149.458c-.066-.155-.39-.1-.843.047-.455.14-.694.127-1.06.224a2.799 2.799 0 0 1 -.393.073c-.1.01-.141.01-.259-.014-.276-.045-.575-.238-.973-.327-.346-.077-.61-.167-.676-.027-.088.185.157.396.348.434.363.074.485.253.872.342l.468.081c.168.022.302.018.42.015.234-.008.415-.014.548-.02.147-.006.347-.117.548-.19.19-.067.29-.043.5-.153.415-.222.559-.345.5-.485" fill="#c9a788"/></g></svg>