<svg width="750" height="147" fill="none" xmlns="http://www.w3.org/2000/svg"><path fill-rule="evenodd" clip-rule="evenodd" d="M118.113 47.806h13.5v-2.5h-13.5v2.5Zm-8.5-2.5.914 2.499.156.001.93-2.5h-2Zm-20 2.5h13v-2.5h-13v2.5Zm-32-2.5v2.5h20.209c3.585 0 6.291-2.5 6.291-2.5h-26.5Zm-20.5 2.5h18.5v-2.5h-18.5v2.5Zm81-5h13.5v-2.5h-13.5v2.5Zm-10-2.5.944 2.5h3.673l.883-2.5h-5.5Zm-18.5 2.5h13v-2.5h-13v2.5Zm-32-2.5v2.5h28.555c.6-.573.945-2.5.945-2.5h-29.5Zm-20.5 2.5h18.5v-2.5h-18.5v2.5Zm81.5-5.5h8v-2.5h-8v2.5Zm-12.5-2.5.964 2.5h7.564l.972-2.5h-9.5Zm-11.5 2.5h8v-2.5h-8v2.5Zm-15.5-2.5v2.5h8.5c0-1.18-.507-2.5-.507-2.5h-7.993Zm-16 2.5h8v-2.5h-8v2.5Zm-21 0h8v-2.5h-8v2.5Zm76.5-5h8v-2.5h-8v2.5Zm-14.5-2.5.979 2.5h11.094l.927-2.5h-13Zm-9.5 2.5h8v-2.5h-8v2.5Zm-31.5-2.5v2.5h22.5c-.541-1.213-2.235-2.5-2.235-2.5H63.113Zm-21 2.5h8v-2.5h-8v2.5Zm52.5-7.5v2.5h7.946v-1.39l.504 1.39h14.562l.542-1.39v1.39h7.946v-2.5h-14.919l-.792 2.118-.796-2.118H94.613Zm-31.5 0v2.5h20.265s1.694-1.282 2.235-2.5h-22.5Zm-21 2.5h8v-2.5h-8v2.5Zm70.966-7.5-.966 2.5h14.5v-2.5h-13.534Zm-18.466 0v2.5h14l-.932-2.5H94.613Zm-15.5 0v2.5h7.993s.507-1.32.507-2.5h-8.5Zm-16 2.5h8v-2.5h-8v2.5Zm-21 0h8v-2.5h-8v2.5Zm72.871-7.5-.871 2.5h17.5v-2.5h-16.629Zm-25.37 0v2.5h17.499l-.867-2.5H89.613Zm-32 0v2.5h29.5s-.346-1.927-.947-2.5H57.614Zm-21 2.5h18.5v-2.5h-18.5v2.5Zm79.957-7.5-.958 2.5h16v-2.5h-15.042Zm-26.958 0v2.5h16l-.949-2.5h-15.05Zm-32 0v2.5h26.5s-2.706-2.5-6.291-2.5H57.613Zm-21 2.5h18.5v-2.5h-18.5v2.5Zm187.5 6.5a3.497 3.497 0 0 1-3.5-3.5c0-1.935 1.565-3.5 3.5-3.5 1.936 0 3.5 1.565 3.5 3.5v3.5h-3.5Zm54.5-6h-6v28h6v-28Zm-24 25.574 1.635-3.84c1.766 1.333 4.112 2.026 6.431 2.026 1.714 0 2.794-.666 2.794-1.68-.01-1.094-1.548-1.433-3.435-1.849-2.988-.658-6.849-1.51-6.898-5.857-.026-3.6 3.137-6.374 7.618-6.374 2.663 0 5.325.667 7.223 2.187l-1.529 3.92c-1.74-1.12-3.901-1.92-5.957-1.92-1.397 0-2.32.667-2.32 1.52.01 1.082 1.587 1.51 3.513 2.034 3.006.816 6.861 1.863 6.925 5.992 0 3.68-3.084 6.267-7.512 6.267-3.242 0-6.221-.773-8.488-2.426Zm64.372-5.227a4.883 4.883 0 0 1-4.222 2.427c-2.68 0-4.845-2.134-4.845-4.774s2.165-4.773 4.845-4.773c1.813 0 3.383.986 4.222 2.426l4.628-2.533a10.2 10.2 0 0 0-8.85-5.12c-5.603 0-10.15 4.48-10.15 10s4.547 10 10.15 10c3.816 0 7.118-2.053 8.85-5.12l-4.628-2.533Zm6.628-20.347v28h5.768V32.41l6.847 8.397h7.385l-8.706-9.975 8.059-9.307h-7.062l-6.523 7.73v-16.45h-5.768Zm-29.89 8.4v2.267c-.963-1.573-3.357-2.667-5.862-2.667-5.174 0-9.248 4.427-9.248 9.973 0 5.547 4.074 10.027 9.248 10.027 2.505 0 4.899-1.093 5.862-2.666v2.266h5.89v-19.2h-5.89Zm0 12c-.853 1.36-2.614 2.373-4.596 2.373-2.725 0-4.927-2.133-4.927-4.773 0-2.64 2.202-4.773 4.927-4.773 1.982 0 3.743 1.066 4.596 2.453v4.72Zm-77.11.1c0 1.936-1.564 3.5-3.5 3.5a3.497 3.497 0 0 1-3.5-3.5c0-1.935 1.565-3.5 3.5-3.5h3.5v3.5Zm5.5-3.5c-1.935 0-3.5 1.59-3.5 3.556v8.889c0 1.966 1.565 3.555 3.5 3.555 1.936 0 3.5-1.59 3.5-3.555v-8.89c0-1.966-1.564-3.555-3.5-3.555Zm3.5-5.5c0-1.936-1.586-3.5-3.549-3.5h-8.901c-1.963 0-3.55 1.564-3.55 3.5s1.587 3.5 3.55 3.5h8.901c1.963 0 3.549-1.564 3.549-3.5Zm11 0c0-1.936 1.565-3.5 3.5-3.5 1.936 0 3.5 1.564 3.5 3.5s-1.564 3.5-3.5 3.5h-3.5v-3.5Zm-5.5 3.5c1.936 0 3.5-1.586 3.5-3.55v-8.9c0-1.963-1.564-3.55-3.5-3.55-1.935 0-3.5 1.587-3.5 3.55v8.9c0 1.964 1.565 3.55 3.5 3.55Zm0 11c1.936 0 3.5 1.565 3.5 3.5 0 1.936-1.564 3.5-3.5 3.5a3.497 3.497 0 0 1-3.5-3.5v-3.5h3.5Zm-3.5-5.5c0 1.936 1.587 3.5 3.55 3.5h8.901c1.963 0 3.549-1.564 3.549-3.5 0-1.935-1.586-3.5-3.549-3.5h-8.901c-1.963 0-3.55 1.564-3.55 3.5Z" fill="#fff"/><g clip-path="url(#a)" fill="#fff"><path d="M425.613 50.741V6.788c.039-.222.08-.44.116-.662a6.929 6.929 0 0 1 6.766-5.814h27.797a6.207 6.207 0 0 1 2.833.639c2.662 1.333 4.028 3.51 4.031 6.464.02 14.228.02 28.455 0 42.681 0 .273-.018.548-.044.817a7.052 7.052 0 0 1-6.823 6.37c-2.07.047-4.172 0-6.26.014h-21.188a7.07 7.07 0 0 1-6.95-5.237c-.13-.432-.189-.878-.278-1.319Zm39.955-21.966V7.59a8.443 8.443 0 0 0-.068-1.124 5.464 5.464 0 0 0-5.305-4.646h-27.609a5.615 5.615 0 0 0-1.774.34 5.534 5.534 0 0 0-3.59 5.294c.02 14.194.02 28.389 0 42.583-.006.245 0 .49.021.734a5.501 5.501 0 0 0 5.423 4.938c9.156.014 18.311.014 27.467 0a5.266 5.266 0 0 0 4.03-1.836 5.518 5.518 0 0 0 1.408-3.844c-.008-7.088-.009-14.172-.003-21.254Z"/><path d="M456.259 54.792c.201-.091.408-.174.591-.28.479-.258.515-.645.109-.994-.254-.219-.511-.44-.742-.683-.162-.169-.094-.296.124-.36.219-.066.388-.08.592-.131.372-.098.479-.234.494-.61.135-2.644.415-5.279.84-7.892.098-.467.166-.94.204-1.416a7.419 7.419 0 0 0-.16-1.337 75.06 75.06 0 0 0-2.011-8.71c-.26-.916-.379-1.871-.609-2.8-.198-.79-.453-1.567-.71-2.339a.843.843 0 0 1 .133-.83c.66-.947 1.289-1.914 1.928-2.875.574-.87 1.183-1.718 1.715-2.611.348-.59.638-1.212.867-1.857.591-1.677 1.183-3.363 1.688-5.066.083-.45.037-.915-.133-1.34-.118-.363-.526-.514-.887-.62a1.084 1.084 0 0 0-.443-.048c-.766.106-1.387-.198-2.023-.591-3.549-2.186-7.097-4.339-10.646-6.506a.82.82 0 0 0-.887-.042 5.847 5.847 0 0 0-.887.66c-.243.219-.441.488-.678.715-.236.228-.144.355.021.53.447.47.932.47 1.346-.03.224-.275.405-.591.624-.87.349-.455.562-.487 1.052-.177l9.248 5.823c.455.296.907.57 1.354.863.074.048.172.16.16.222a3.4 3.4 0 0 0 .15 1.668 4.198 4.198 0 0 1 0 2.192 2.49 2.49 0 0 1-.996 1.454c-.337.255-.704.47-1.044.719-.399.296-.807.591-1.183.914a5.22 5.22 0 0 1-1.774 1.011c-.568.195-1.139.382-1.704.592-.139.05-.212.044-.295-.1-.281-.507-.592-1.006-.887-1.503a3.015 3.015 0 0 1-.367-.592c-.145-.505-.524-.653-.967-.692a6.107 6.107 0 0 0-1.313-.023c-1.405.186-2.194 1.898-1.774 3.125.222.513.605.94 1.091 1.216.139.098.296.186.455.296-.514.431-.5 1.011-.467 1.6.032.588.024 1.126.086 1.685.094.852.553 1.547 1.07 2.2.379.48.766.952 1.145 1.431a3.9 3.9 0 0 1 .795 3.224 6.592 6.592 0 0 0 .237 3.474c.178.444.436.852.763 1.201.284.346.516.732.689 1.145.387.84.727 1.703 1.097 2.549.154.283.194.614.112.925a.296.296 0 0 0 .033.21.397.397 0 0 1 .067.147.398.398 0 0 1-.063.31.394.394 0 0 1-.12.108.801.801 0 0 0-.399.701c0 .083-.124.216-.219.257-.227.104-.482.142-.706.246-.243.094-.467.23-.663.402-.544.547-1.053 1.127-1.579 1.685a1.042 1.042 0 0 1-.331.249 12.95 12.95 0 0 0-3.292 2.09 1.727 1.727 0 0 1-.81.415c-.677.145-.914.455-.964 1.156a.64.64 0 0 1-.174.358 3.96 3.96 0 0 0-1.08 1.94c-.068.485-.014.98.157 1.44.083.266.172.532.275.851h-10.782a4.63 4.63 0 0 1-4.61-3.714 5.52 5.52 0 0 1-.092-1.183V16.43c0-2.999.027-6 0-8.999a4.67 4.67 0 0 1 3.782-4.655c.267-.051.539-.078.811-.08h27.41a4.603 4.603 0 0 1 4.592 4.593c.015 4.335 0 8.67 0 13.012v29.788a4.58 4.58 0 0 1-2.194 4.072 4.33 4.33 0 0 1-2.315.698c-1.307.02-2.614 0-3.919 0l-.008-.066Zm-16.788-2.365c.31.106.633.171.961.195.757.026 1.514 0 2.274 0v-2.236h-.731c-.343-.026-.384-.068-.39-.408 0-.296 0-.591-.018-.887-.041-.568-.1-1.139-.571-1.54.775-.666 1.183-1.48 1.006-2.497a2.463 2.463 0 0 0-2.014-2.07c1.145-.517 1.479-1.437 1.502-2.543.024-1.106 0-2.162 0-3.253v-.928c0-.213.107-.296.32-.296h.751v-2.336h-2.632c1.739-1 2.321-2.532 2.318-4.37-.003-1.84-.659-3.345-2.306-4.354h1.094v-2.09h-1.21c-.508 0-.626-.119-.629-.634v-3.92a1.23 1.23 0 0 1 .147-.385c.157.065.373.091.453.207.142.221.242.467.296.724.071.334.085.678.124 1.012h2.25v-4.25h-10.252v4.235h2.223c.01-.28.046-.558.107-.831a4.37 4.37 0 0 1 .458-.973c.059-.098.296-.118.429-.115.047 0 .124.195.124.295v4.008c0 .508-.136.59-.659.609h-1.145v2.111h.888c-.116.074-.169.112-.225.145a4.188 4.188 0 0 0-1.757 2.029 5.937 5.937 0 0 0-.369 2.85 4.427 4.427 0 0 0 1.091 2.721 12.9 12.9 0 0 0 1.121.979h-2.286v1.691c0 .624 0 .624.621.624.47 0 .496.027.496.491v4.232a2.18 2.18 0 0 0 1.166 1.987l.23.136v.05h-2.502v2.304h.772c.252 0 .34.104.34.337v4.457c0 .24-.109.34-.343.337-.233-.003-.479 0-.715 0v2.256h6.083l1.109-.106Zm2.685-43.122c-.216.015-.432-.033-.518.05-.242.246-.461.127-.71.053-2.016-.591-3.687.695-3.477 2.703.162 1.553 2.091 2.626 3.46 1.908.295-.154.52-.258.789 0a.485.485 0 0 0 .207.082c.246.063.355-.017.361-.272.006-.254 0-.591 0-.887 0-.642-.029-.615.538-.816v-.479h-2.507v.485l.13.027c.434.106.562.272.514.659a.634.634 0 0 1-.442.59.638.638 0 0 1-.259.028 1.103 1.103 0 0 1-1.035-.656 2.43 2.43 0 0 1 .062-2.322.92.92 0 0 1 .548-.44c.736-.14 1.375 0 1.67.765 0 .045.027.107.06.125.118.059.257.16.36.136a.405.405 0 0 0 .234-.296c.029-.452.015-.92.015-1.443Zm-7.733 2.86h.44a8.654 8.654 0 0 0 1.035-.074c.837-.145 1.319-.678 1.31-1.405a1.476 1.476 0 0 0-1.262-1.405 8.284 8.284 0 0 0-1.183-.047c-.609 0-1.216.027-1.825.038h-.485c0 .09 0 .151-.018.216-.032.249 0 .432.32.45.225 0 .295.18.295.399v2.197c0 .69-.068.769-.739.867 0 0-.029.02-.044.035v.547h2.661c.465 0 .465 0 .426-.47a.369.369 0 0 0-.032-.098 2.807 2.807 0 0 1-.592-.1.533.533 0 0 1-.296-.31c-.026-.28-.03-.56-.011-.84Zm11.66 1.815h2.682c.065 0 .183-.112.18-.165 0-.145.128-.382-.144-.414a.83.83 0 0 1-.687-.592c-.396-.902-.807-1.798-1.218-2.694-.13-.296-.207-.677-.435-.822-.227-.145-.618-.032-.937-.056a.342.342 0 0 0-.379.245c-.505 1.091-1.02 2.174-1.531 3.253a1.02 1.02 0 0 1-.796.639c-.278.044-.133.266-.16.408-.026.142.071.19.204.19h2.071c.165 0 .227-.072.204-.222-.024-.151.097-.35-.169-.373-.704-.062-.577-.225-.376-.704.018-.041.027-.1.06-.124.091-.071.192-.178.295-.183.296-.024.618 0 .929 0 .562 0 .562 0 .763.535.139.37.091.461-.296.473-.219 0-.296.092-.257.296a2.076 2.076 0 0 0-.003.31Z"/><path d="M454.688 46.427c-.195.973-.441 2.04-.621 3.12a18.716 18.716 0 0 0-.192 4.435.608.608 0 0 0 .364.592c.109.057.197.15.248.263h-10.35c.085-.234.151-.456.239-.666a6.051 6.051 0 0 1 1.479-1.969c.325-.313.674-.591.988-.923a.362.362 0 0 1 .493-.074c.462.234.926.453 1.384.69a.412.412 0 0 0 .327.063.401.401 0 0 0 .265-.203c1.047-1.3 2.321-2.365 3.528-3.519.644-.627 1.277-1.253 1.848-1.81Zm.432-23.936-1.478 1.745a1.665 1.665 0 0 0-.119-.23c-.334-.424-.322-.545.13-.811.453-.266.935-.53 1.405-.793l.062.09Zm-10.119-10.773h1.112l-.547-1.221-.565 1.221Zm-5.175 35.77c.142.08.245.142.352.198.629.338.739.929.757 1.562v.902c.017.553.145.692.698.75.147.016.295 0 .487 0v1.128a.577.577 0 0 1-.136.038c-.564 0-1.129 0-1.691-.033a1.737 1.737 0 0 1-1.709-1.691c-.036-.381-.045-.769-.057-1.153-.023-.737-.351-1.062-1.079-1.062h-1.056c0 .083-.026.145-.026.207v1.916a.528.528 0 0 0 .153.438.538.538 0 0 0 .438.154h.142c.642 0 .645 0 .639.66 0 .57.077.502-.515.505h-4.116c-.251 0-.358-.062-.334-.331.023-.27 0-.524 0-.822h.653a.476.476 0 0 0 .527-.524v-5.22c0-.354-.187-.523-.547-.526h-.61v-1.017c0-.053.154-.136.237-.136h2.593c1.242 0 2.483.013 3.721.038.216.011.43.046.638.104 1.455.358 1.692 2.224 1.095 3.046a3.474 3.474 0 0 1-.817.665c-.139.082-.285.15-.437.204Zm-3.434-.65c.568 0 1.121.041 1.665 0a.948.948 0 0 0 .887-.994c.033-.648-.186-1.029-.786-1.138a15.587 15.587 0 0 0-1.757-.122l-.009 2.254Zm-3.587-17.578a4.515 4.515 0 0 1 .837-2.759c.774-1.032 1.863-1.479 3.108-1.585a5.181 5.181 0 0 1 2.564.37c1.502.665 2.223 1.871 2.365 3.46a5.637 5.637 0 0 1-.15 1.957 3.623 3.623 0 0 1-2.535 2.662 5.483 5.483 0 0 1-3.749-.107c-1.364-.535-2.1-1.582-2.34-3.001-.062-.323-.071-.663-.1-.997Zm6.302.118c0-.928-.042-1.685-.332-2.404a1.407 1.407 0 0 0-1.304-.952 1.478 1.478 0 0 0-1.532.83c-.101.202-.18.413-.236.63a7.518 7.518 0 0 0-.133 2.852c.067.47.194.932.375 1.372a1.25 1.25 0 0 0 .95.763c.887.186 1.579-.22 1.919-1.148a5.51 5.51 0 0 0 .293-1.93v-.013Zm-.795 6.009c0-.103-.018-.174-.018-.248v-.92h3.593v1.183h-.527a.437.437 0 0 0-.452.252.428.428 0 0 0-.038.18c-.02.14-.029.28-.027.42v3.948a5.36 5.36 0 0 1-.036.76 1.947 1.947 0 0 1-1.534 1.712 6.292 6.292 0 0 1-3.845-.16c-.854-.313-1.558-.94-1.526-2.209.039-1.437 0-2.877 0-4.314 0-.47-.103-.577-.576-.592h-.473v-1.183c.097 0 .198-.017.295-.017h3.975c.278 0 .361.082.34.352-.021.269 0 .538 0 .845h-.754c-.343 0-.476.124-.524.459-.016.13-.024.262-.023.393v3.977c0 .92.295 1.301 1.183 1.411.455.05.916.018 1.36-.095a1.062 1.062 0 0 0 .816-1.141v-4.436c0-.44-.121-.565-.568-.577-.189-.003-.405 0-.641 0Zm-4.419-16.146h-1.091v-3.14h9.084v3.131h-1.091c-.041-.248-.065-.494-.127-.727a1.521 1.521 0 0 0-1.825-1.183.366.366 0 0 0-.328.411v4.962c0 .47.204.668.671.671h1.015c.153 0 .221.05.216.213v.79h-6.14v-1h1.151c.547 0 .739-.192.739-.748v-4.823c0-.349-.059-.42-.405-.488-.887-.171-1.674.473-1.807 1.479a12.1 12.1 0 0 0-.062.452Z"/><path d="M436.903 38.356v-1.89c0-.416.083-.499.485-.499h1.015c.355 0 .455.092.455.447v2.765c0 .319-.026.641 0 .958.068.689-.591.976-1.067.931-.477-.044-.947-.32-.902-.99.041-.571.011-1.148.014-1.722Zm.994 11.82a3.66 3.66 0 0 1-.647 0 .357.357 0 0 1-.219-.257c-.024-.337 0-.674 0-1.011 0-.039 0-.104.024-.107.195-.033.393-.045.591-.035a.323.323 0 0 1 .231.219c.035.378.02.771.02 1.191Zm-3.477-38.825v-1.23c0-.06.077-.166.127-.171.296-.033.618-.048.828.218a.825.825 0 0 1 .074.887.522.522 0 0 1-.325.228 5.21 5.21 0 0 1-.704.068Zm10.581.367.565-1.221.547 1.221h-1.112Zm-7.984 33.446v1.097l.109.02h.562a.541.541 0 0 0 .536-.296.525.525 0 0 0 .055-.209.589.589 0 0 0-.544-.61c-.228-.02-.461-.002-.718-.002Zm1.451-15.954h-.059a3.19 3.19 0 0 0 0-.536 12.396 12.396 0 0 0-.295-1.478.765.765 0 0 0-.76-.53.825.825 0 0 0-.799.48 2.3 2.3 0 0 0-.207.55 7.279 7.279 0 0 0-.077 2.77c.043.342.143.674.296.982a.799.799 0 0 0 1.396.047c.13-.183.222-.391.269-.611.103-.56.163-1.118.236-1.674Z"/><path d="M437.017 45.164c.257 0 .49-.018.721 0a.59.59 0 0 1 .544.61.536.536 0 0 1-.591.506h-.562l-.109-.022-.003-1.094Zm1.38-15.774a9.66 9.66 0 0 1-.162 1.479 1.68 1.68 0 0 1-.269.612.803.803 0 0 1-1.396-.047 3.07 3.07 0 0 1-.296-.982 7.279 7.279 0 0 1 .077-2.771 2.3 2.3 0 0 1 .207-.55.82.82 0 0 1 .799-.48.796.796 0 0 1 .792.45c.153.507.243 1.03.266 1.559v.535c-.006.056-.015.15-.018.195Z"/></g><path fill-rule="evenodd" clip-rule="evenodd" d="M554.974 11.806c3.463 0 4.93.187 7.046 1.31 2.286 1.24 3.702 3.67 3.702 6.713 0 2.805-1.143 5.235-3.361 6.697-2.03 1.343-4.333 1.53-7.421 1.53h-7.763v-16.25h7.797Zm-3.856 12.85h4.726c3.31 0 5.818-1.326 5.818-4.793 0-3.23-2.03-4.657-6.091-4.606l-4.453.034v9.365Zm-3.941 6.8h3.941v7.138h-3.941v-7.139Zm141.653-13.22h3.618v2.968h-3.618v11.99c0 1.898.921 2.467 2.362 2.467.251 0 .704-.034.921-.069v2.847c-.157.02-.302.04-.44.06-.348.05-.653.095-1 .095-3.435 0-5.612-1.173-5.612-5.176V21.204h-2.915v-2.968h2.915v-5.4h3.769v5.4Zm-94.92 27.57c6.645 0 9.933-3.76 9.933-10.702V19.598h-3.785v1.21c0 .397 0 .811.034 1.209-1.13-1.574-3.202-2.999-6.645-2.999-5.326 0-9.18 3.844-9.18 9.543 0 5.483 3.563 9.393 9.146 9.393 3.477 0 5.669-1.458 6.645-3.098.017 0 .026.008.034.016.009.009.018.017.035.017 0 5.202-1.61 7.935-6.149 7.935-2.946 0-4.367-1.574-5.052-3.33h-4.008c1.062 3.794 4.042 6.312 8.992 6.312Zm.377-10.884c-3.699 0-5.857-2.667-5.857-6.395 0-3.876 2.226-6.394 5.857-6.394 3.631 0 5.891 2.518 5.891 6.278 0 4.241-2.569 6.51-5.891 6.51Zm114.547-15.887-3.821 10.567c-.441 1.202-.741 2.078-1.067 3.024-.187.546-.383 1.115-.618 1.784h-.069c-.49-1.53-.931-2.774-1.561-4.553l-.055-.154-3.717-10.685h-4.447l7.695 19.609-.206.507c-.107.265-.216.536-.332.813-.643 1.524-2.171 2.523-3.856 2.523h-1.911v3.336h1.963c3.178 0 6.044-1.88 7.226-4.775a13760.24 13760.24 0 0 0 8.997-21.996h-4.221Zm-92.736 16.588c-3.888 0-6.137-2.577-6.3-5.83h15.681v-1.171c0-4.995-3.012-9.604-9.537-9.604-6.023 0-10.039 4.095-10.039 9.909 0 5.813 3.86 9.667 10.039 9.667 4.812 0 7.979-2.409 9.122-5.765h-3.86c-1.021 1.59-2.354 2.794-5.106 2.794Zm5.366-8.671c-.346-2.939-2.337-5.027-5.608-5.027-3.133 0-5.539 1.911-5.919 5.027h11.527Zm10.708-7.455v2.426c.622-1.782 2.524-2.905 4.712-2.905.458 0 .679.03.913.06l.046.006v3.351a7.876 7.876 0 0 0-1.296-.115c-3.517 0-4.19 2.541-4.19 6.37v9.904h-3.753v-15.68c0-1.205 0-2.262-.034-3.417h3.602Zm39.183 19.097c3.287 0 5.166-1.568 6.172-3.202v2.723h3.588c-.033-.94-.033-1.881-.033-2.872V19.018h-3.74v8.765c0 4.192-.704 7.758-4.695 7.758-3.036 0-4.293-2.262-4.293-6.009V19.018h-3.723v11.9c0 4.953 2.213 7.676 6.724 7.676Zm-25.057-26.788h-6.377v26.788h7.007c9.921-.102 13.615-6.013 13.582-13.334-.033-8.596-4.638-13.386-14.212-13.454Zm-.282 23.442h-2.236V15.204s1.325-.034 2.601-.034c6.592 0 10.187 3.669 10.203 10.073 0 7.287-3.627 10.005-10.568 10.005Zm-66.35 2.99c-.095-.593-.114-1.011-.153-1.845v-.001l-.034-.726c-1.497 2.038-3.486 2.928-6.632 2.928-4.132 0-7.125-1.925-7.125-5.42 0-4.028 4.047-5.355 9.301-6.034a71.663 71.663 0 0 1 4.048-.42c0-3.705-2.16-4.822-4.422-4.822-2.261 0-3.911 1.505-3.911 3.479h-3.673c0-3.802 3.146-6.359 7.669-6.359 4.524 0 8.01 1.78 8.01 8.64v3.64c0 3.025.153 5.241.493 6.956h-3.571v-.016Zm-9.863-5.113c0 1.747 1.496 2.847 3.894 2.847 3.52 0 5.408-2.038 5.408-5.679 0-.469 0-.792.034-1.003-6.411.631-9.336 1.23-9.336 3.835Z" fill="#fff"/><path d="m32.515 116.545-.045-.119-4.5-11.739a1.189 1.189 0 0 0-2.248.121l-3.038 9.3H10.382l-3.037-9.3a1.191 1.191 0 0 0-2.248-.121L.598 116.428l-.046.117a8.353 8.353 0 0 0 2.772 9.656l.017.013.038.03 6.846 5.131 3.397 2.566 2.063 1.56a1.394 1.394 0 0 0 1.681 0l2.064-1.56 3.396-2.566 6.895-5.161.02-.015a8.354 8.354 0 0 0 2.774-9.654Zm26.942-.607h4.835c-.806-5.142-5.258-8.723-11.05-8.723-6.855 0-11.999 5.039-11.999 13.48 0 8.289 4.912 13.431 12.138 13.431 6.485 0 11.128-4.172 11.128-10.924v-3.146H53.88v3.708h6.037c-.076 3.736-2.57 6.101-6.51 6.101-4.386 0-7.392-3.286-7.392-9.221 0-5.897 3.057-9.171 7.29-9.171 3.159 0 5.32 1.688 6.152 4.465Zm8.25 17.829h4.63v-19.636h-4.63v19.636Zm2.335-22.757c1.47 0 2.672-1.127 2.672-2.507 0-1.379-1.201-2.519-2.672-2.519s-2.686 1.125-2.686 2.519c0 1.395 1.194 2.507 2.677 2.507h.009Zm16.158 3.121h-3.877v-4.717h-4.63v4.717h-2.787v3.581h2.787v10.924c-.025 3.696 2.663 5.519 6.14 5.411a9.388 9.388 0 0 0 2.725-.46l-.78-3.622a5.629 5.629 0 0 1-1.355.18c-1.166 0-2.1-.409-2.1-2.277v-10.166H86.2v-3.571Zm3.584 19.636h16.282v-3.978H94.531v-22.217h-4.747v26.195Zm25.151.397c3.082 0 4.922-1.446 5.767-3.095h.153v2.698h4.458v-13.149c0-5.192-4.233-6.752-7.982-6.752-4.131 0-7.302 1.84-8.325 5.421l4.324.616c.458-1.344 1.764-2.494 4.033-2.494 2.151 0 3.327 1.099 3.327 3.031v.076c0 1.329-1.395 1.395-4.862 1.764-3.81.41-7.455 1.548-7.455 5.974-.013 3.863 2.813 5.91 6.562 5.91Zm1.522-3.397c-1.932 0-3.314-.883-3.314-2.583 0-1.779 1.548-2.52 3.609-2.815 1.216-.165 3.647-.473 4.245-.957v2.314c.013 2.18-1.753 4.035-4.54 4.035v.006Zm12.265 3h4.553v-3.095h.268c.73 1.433 2.252 3.441 5.629 3.441 4.63 0 8.097-3.672 8.097-10.143 0-6.548-3.569-10.104-8.11-10.104-3.466 0-4.912 2.084-5.616 3.505h-.196v-9.799h-4.625v26.195Zm4.54-9.822c0-3.821 1.637-6.281 4.617-6.281 3.083 0 4.671 2.621 4.671 6.281 0 3.66-1.612 6.368-4.671 6.368-2.955 0-4.617-2.558-4.617-6.368Zm151-13.731s-1.934-1.491-8.187-3.789a45.668 45.668 0 0 0-9.684-2.484v11.976c0 5.067-5.717 10.439-15.487 10.439h-.285c-9.77 0-15.486-5.372-15.486-10.439v-11.976a45.591 45.591 0 0 0-9.677 2.484c-6.26 2.298-8.187 3.789-8.187 3.789.463 9.611 15.387 17.526 33.47 17.526s33.013-7.948 33.476-17.526" fill="#fff"/><path d="M284.269 137.113s-1.935 1.49-8.187 3.795a45.348 45.348 0 0 1-9.678 2.478V131.41c0-5.061-5.723-10.433-15.493-10.433h-.278c-9.77 0-15.493 5.372-15.493 10.433v11.976a45.348 45.348 0 0 1-9.678-2.478c-6.252-2.305-8.187-3.795-8.187-3.795.464-9.605 15.388-17.52 33.477-17.527 18.09-.006 33.013 7.949 33.477 17.527" fill="#fff"/><path fill-rule="evenodd" clip-rule="evenodd" d="M419.7 129.537c0 .678-.497 1.236-1.204 1.236-.688 0-1.185-.559-1.185-1.236v-11.78c0-.678.497-1.236 1.204-1.236.688 0 1.185.559 1.185 1.236v11.78Zm15.444-11.78v10.764c0 1.455-.745 2.273-1.93 2.273h-.095c-1.127 0-1.663-.678-2.141-1.675l-2.408-4.884-2.141-5.042.058 4.883.019 5.442c0 .678-.497 1.235-1.204 1.235-.688 0-1.185-.558-1.185-1.235v-10.765c0-1.336.745-2.273 2.046-2.273h.095c1.204 0 1.701.678 2.179 1.675l2.37 4.845 2.026 4.704-.057-4.505-.019-5.441c0-.678.496-1.236 1.204-1.236.686-.001 1.183.556 1.183 1.235Zm9.577 11.761c0 .678-.497 1.235-1.204 1.235-.688 0-1.185-.559-1.185-1.235v-10.665h-2.963c-.611 0-1.107-.478-1.107-1.175 0-.678.496-1.156 1.107-1.156h8.315c.611 0 1.108.479 1.108 1.176 0 .678-.497 1.155-1.108 1.155h-2.963v10.665Zm7.186-.399v-11.063c0-1.036.554-1.614 1.568-1.575h6.881c.611 0 1.107.498 1.107 1.176 0 .678-.496 1.156-1.107 1.156h-6.079v3.428h5.371c.593 0 1.07.459 1.07 1.116 0 .658-.477 1.117-1.07 1.117h-5.371v3.946h6.079c.611 0 1.107.498 1.107 1.176 0 .678-.496 1.156-1.107 1.156h-6.939c-.994.001-1.547-.577-1.51-1.633Zm22.575 1.694c.669-.36.879-1.098.554-1.675l-2.389-4.424c1.969-.399 3.116-1.914 3.116-3.967 0-2.153-1.299-4.266-4.416-4.266h-4.529c-1.013-.039-1.567.539-1.567 1.575v11.482c0 .677.497 1.235 1.185 1.235.707 0 1.204-.557 1.204-1.235l-.019-4.346h2.522l2.657 5.123a1.237 1.237 0 0 0 1.682.498Zm-3.079-7.875h-3.784v-4.127h3.765c1.262 0 1.969.837 1.969 2.054 0 1.216-.668 2.073-1.95 2.073Zm9.29 6.759c-1.433-1.336-2.084-3.429-2.084-6.06 0-2.651.631-4.724 2.046-6.039.879-.798 2.064-1.336 3.785-1.336 1.51 0 2.676.359 3.555 1.136.765.638 1.319 1.536 1.644 2.791.171.658-.268 1.316-.994 1.456-.688.119-1.242-.339-1.452-.997-.23-.638-.536-1.096-.899-1.416-.497-.458-1.108-.658-1.912-.658-.86 0-1.606.259-2.16.837-.803.837-1.147 2.333-1.147 4.226 0 1.874.325 3.369 1.166 4.206.554.578 1.281.837 2.122.837.879 0 1.548-.239 2.103-.778.286-.279.535-.637.707-1.056.249-.618.765-1.077 1.433-.917.669.16 1.09.837.88 1.495-.345 1.096-.937 1.973-1.74 2.571-.879.658-1.968.997-3.344.997-1.759 0-2.868-.538-3.709-1.295Zm17.548-13.435c-4.149 0-5.907 2.91-5.907 7.375 0 4.604 1.74 7.375 5.907 7.375 4.09 0 5.887-2.771 5.887-7.375 0-4.545-1.778-7.375-5.887-7.375Zm-.02 2.333c2.275 0 3.46 1.653 3.46 5.042 0 3.388-1.205 5.043-3.46 5.043-2.274 0-3.421-1.654-3.421-5.043 0-3.388 1.185-5.042 3.421-5.042Zm24.447 10.923c0 .678-.497 1.235-1.205 1.235-.688 0-1.185-.559-1.185-1.235v-5.343l.058-5.202-1.664 5.282-1.681 5.203c-.286.917-.879 1.276-1.625 1.276-.784 0-1.357-.378-1.663-1.295l-1.72-5.182-1.587-5.203.057 5.123v5.342c0 .678-.497 1.235-1.204 1.235-.688 0-1.185-.558-1.185-1.235v-10.664c0-1.476.765-2.333 2.103-2.333 1.262 0 1.969.697 2.369 1.973l1.759 5.442 1.07 3.708 1.09-3.708 1.758-5.442c.402-1.276 1.09-1.973 2.352-1.973 1.338 0 2.083.837 2.083 2.333l.02 10.663Z" fill="#fff"/><path d="M398.019 125.674c0 .357-.137.699-.38.951a1.274 1.274 0 0 1-.916.394c-.344 0-.674-.142-.917-.394a1.37 1.37 0 0 1-.38-.951v-12.011c0-.356.137-.698.38-.95a1.27 1.27 0 0 1 .917-.394c.343 0 .673.141.916.394.243.252.38.594.38.95v12.011Zm-.45 8.322c-.171.178-4.993 4.345-13.832 4.345-8.84 0-13.629-4.145-13.833-4.322a1.325 1.325 0 0 1-.448-.901 1.343 1.343 0 0 1 .298-.966c.224-.268.541-.434.882-.461.342-.027.679.087.94.317.075.055 4.382 3.677 12.15 3.677 7.768 0 12.107-3.644 12.15-3.677.264-.228.602-.341.945-.314.342.027.66.191.887.458.219.265.328.608.304.955a1.34 1.34 0 0 1-.432.901l-.011-.012Zm-28.125-20.333c.019-.357.174-.693.431-.932.257-.24.595-.364.94-.346.32.019.622.16.847.396.226.236.359.55.375.882v11.989c0 .357-.137.699-.38.951a1.274 1.274 0 0 1-.917.394c-.344 0-.673-.142-.917-.394a1.37 1.37 0 0 1-.379-.951v-11.989Zm6.503-2.666c.02-.358.175-.693.432-.933.257-.239.595-.363.94-.345.32.019.621.16.847.396.225.236.359.55.374.882v17.777c0 .357-.136.699-.38.951a1.272 1.272 0 0 1-.916.394c-.344 0-.674-.142-.917-.394a1.37 1.37 0 0 1-.38-.951v-17.777Zm6.536-.667c0-.357.137-.699.38-.951s.573-.394.917-.394c.343 0 .673.142.916.394s.38.594.38.951v19.333c0 .357-.137.699-.38.951a1.274 1.274 0 0 1-.916.394c-.344 0-.674-.142-.917-.394a1.37 1.37 0 0 1-.38-.951V110.33Zm6.429.667c0-.357.136-.699.379-.951.244-.252.573-.394.917-.394.344 0 .674.142.917.394s.38.594.38.951v17.777c0 .357-.137.699-.38.951a1.274 1.274 0 0 1-.917.394c-.344 0-.673-.142-.917-.394a1.37 1.37 0 0 1-.379-.951v-17.777Zm9.461-7.334h-29.229a4.704 4.704 0 0 0-1.859.371 4.823 4.823 0 0 0-1.579 1.081 5.042 5.042 0 0 0-1.06 1.625 5.182 5.182 0 0 0-.377 1.923v30c.002.661.131 1.314.377 1.923a5.046 5.046 0 0 0 1.06 1.626c.453.464.989.832 1.579 1.081s1.222.374 1.859.37h29.229a4.7 4.7 0 0 0 1.855-.369 4.845 4.845 0 0 0 1.579-1.078 5.073 5.073 0 0 0 1.06-1.622c.247-.608.376-1.26.381-1.92v-30.011a5.187 5.187 0 0 0-.377-1.92 5.03 5.03 0 0 0-1.057-1.624 4.829 4.829 0 0 0-1.576-1.082 4.684 4.684 0 0 0-1.855-.374m332.59 42.352c-.472-1.444-.934-2.887-1.422-4.326-.08-.244.09-.233.202-.276a10.906 10.906 0 0 0 3.917-2.351 9.12 9.12 0 0 0 1.693-2.171c.166-.285.223-.621.159-.945-.456-2.479-.923-4.957-1.385-7.431l-1.497-8.132c-.096-.504-.186-1.003-.292-1.507-.032-.165 0-.228.181-.228h5.201c.133 0 .197 0 .213.175.217 2.171.445 4.336.668 6.507l.637 6.226c.122-.031.101-.148.128-.222 1.428-4.199 3.036-8.334 4.655-12.458.047-.127.074-.228.26-.228h5.265a.536.536 0 0 1 .112.026c-.218.473-.43.934-.648 1.391-2.123 4.496-4.167 9.023-6.343 13.493a41.217 41.217 0 0 1-4.389 7.25 14.605 14.605 0 0 1-4.937 4.31c-.677.352-1.388.633-2.123.839-.037 0-.08 0-.09.063l-.165-.005Zm-111.231-.748-3.424-.574-9.421-1.629-9.119-1.593-4.82-.822c-.244-.043-.318-.101-.281-.382.356-2.612.679-5.223 1.019-7.83.34-2.606.685-5.217 1.025-7.829.36-2.77.711-5.546 1.061-8.317.09-.69.196-1.38.287-2.065a.95.95 0 0 1 .711-.839c1.486-.467 2.967-.944 4.459-1.39a.572.572 0 0 0 .451-.531 15.798 15.798 0 0 1 4.326-8.286 6.086 6.086 0 0 1 3.545-1.825 3.534 3.534 0 0 1 3.185 1.093c.08.08.138.159.276.149 1.762-.08 2.972.806 3.875 2.224.339.524.605 1.092.791 1.687.085.261.175.34.446.239.382-.138.785-.233 1.178-.345a.733.733 0 0 1 .425 0v.186l.005 38.679Zm-13.848-7.617h.679a5.867 5.867 0 0 0 4.889-2.962c.57-1 .888-2.124.923-3.275a6.243 6.243 0 0 0-2.123-5.308 18.376 18.376 0 0 0-2.288-1.651 8.808 8.808 0 0 1-1.592-1.199 1.593 1.593 0 0 1-.467-1.486 1.978 1.978 0 0 1 1.592-1.593 6.66 6.66 0 0 1 4.103.298c.218.079.287.053.345-.181.377-1.454.77-2.909 1.163-4.358.127-.488.132-.504-.356-.626a10.147 10.147 0 0 0-6.953.722 7.484 7.484 0 0 0-4.422 6.311c-.255 2.346.473 4.278 2.426 5.69.616.44 1.247.86 1.826 1.359.487.379.845.9 1.024 1.491a1.71 1.71 0 0 1-.585 1.943 1.695 1.695 0 0 1-.651.302 2.822 2.822 0 0 1-1.136 0 8.744 8.744 0 0 1-3.281-1.475c-.18-.122-.238-.117-.286.111a224.74 224.74 0 0 1-.791 3.339.427.427 0 0 0 .164.499 8.805 8.805 0 0 0 5.797 2.049Zm5.403-34.56a2.31 2.31 0 0 0-1.592-.297 4.783 4.783 0 0 0-2.654 1.422 14.75 14.75 0 0 0-3.843 6.948c-.064.245.026.223.212.17a175.73 175.73 0 0 1 3.254-1.003.317.317 0 0 0 .249-.297c.081-.434.191-.861.329-1.279.77-2.277 1.858-4.337 4.045-5.664Zm1.592 4.496v-.186a9.352 9.352 0 0 0-.562-2.903c-.085-.228-.181-.25-.377-.138-.368.202-.709.45-1.014.738a9.918 9.918 0 0 0-2.442 4.336c0 .096-.111.207 0 .287.112.079.17 0 .255-.043l3.461-1.061c.786-.218.786-.218.706-1.025l-.027-.005Zm.823-3.498c.096.34.196.653.276.966.203.857.317 1.732.34 2.612 0 .09-.09.307.175.223l1.762-.531c.122-.037.159-.101.117-.223a5.633 5.633 0 0 0-1.38-2.362 2.442 2.442 0 0 0-1.263-.68l-.027-.005Zm6.03 41.179v-38.828a.677.677 0 0 1 .467.266c.855.828 1.709 1.651 2.559 2.489a.649.649 0 0 0 .483.207l2.739.032c.53 0 .636.122.705.637.208 1.444.425 2.893.637 4.337l.653 4.363c.218 1.475.441 2.951.658 4.421l.637 4.337.653 4.395c.218 1.443.425 2.887.643 4.336l.652 4.395c.069.494.128.993.218 1.481.037.207-.032.265-.212.308-1.688.408-3.371.828-5.053 1.242l-6.29 1.592c-.05.004-.1 0-.149-.01Zm68.572-.245.749-3.943 1.391-7.283c.498-2.639 1.001-5.278 1.507-7.914.35-1.836.642-3.683.892-5.536.074-.531.138-1.035.201-1.555 0-.165.069-.255.282-.25h4.214c.186 0 .266 0 .239.245-.106.854-.186 1.709-.276 2.569.133 0 .154-.107.207-.17a7.183 7.183 0 0 1 4.114-2.782c2.033-.44 3.88-.1 5.307 1.545a6.016 6.016 0 0 1 1.396 3.259 14.402 14.402 0 0 1-2.993 11.03 9.026 9.026 0 0 1-5.404 3.429 7.431 7.431 0 0 1-4.835-.457c-.186-.09-.207 0-.234.133l-.684 3.715c-.227 1.25-.457 2.488-.69 3.716-.027.117 0 .249-.229.249h-5.053a.568.568 0 0 1-.101 0Zm14.82-19.299a4.46 4.46 0 0 0-.435-2.123 1.772 1.772 0 0 0-1.566-.971 3.004 3.004 0 0 0-2.42 1.183 7.929 7.929 0 0 0-1.779 3.753c-.376 1.778-.663 3.572-.992 5.361a.229.229 0 0 0 .106.255 3.344 3.344 0 0 0 2.468.626 3.6 3.6 0 0 0 2.32-1.492 11.483 11.483 0 0 0 2.298-6.619v.027Zm-42.824-4.756a16.278 16.278 0 0 1 1.65-1.454 6.692 6.692 0 0 1 4.968-1.232 3.966 3.966 0 0 1 3.323 3.466 10.888 10.888 0 0 1-.111 3.668c-.706 3.912-1.455 7.813-2.182 11.72-.042.234-.111.345-.398.34h-4.74c-.201 0-.276 0-.228-.255.669-3.471 1.327-6.943 1.975-10.414.162-.846.23-1.708.201-2.569a1.593 1.593 0 0 0-2.218-1.593 3.764 3.764 0 0 0-1.97 1.54 10.178 10.178 0 0 0-1.672 4.177l-1.704 8.907c-.031.18-.09.228-.265.223h-4.867c-.207 0-.244-.032-.202-.25.754-3.945 1.504-7.887 2.251-11.826a8737.14 8737.14 0 0 1 2.123-11.146c.233-1.221.467-2.447.69-3.673.026-.176.09-.234.27-.234h4.868c.244 0 .239.101.201.271l-1.942 10.085c-.005.047-.011.148-.021.249Zm18.758 16.884a7.423 7.423 0 0 1-4.437-1.273 6.473 6.473 0 0 1-1.891-2.014 6.473 6.473 0 0 1-.875-2.62 12.822 12.822 0 0 1 3.004-10.276 9.557 9.557 0 0 1 6.529-3.403 8.143 8.143 0 0 1 4.379.659 6.167 6.167 0 0 1 3.594 4.777c.711 4.618-.499 8.673-4.04 11.857a9.106 9.106 0 0 1-6.263 2.293Zm5.074-12.155c.016-.43-.02-.862-.106-1.284-.504-2.468-2.866-2.516-4.108-1.454a5.362 5.362 0 0 0-1.173 1.411c-.809 1.424-1.315 3-1.486 4.629a7.586 7.586 0 0 0 .058 2.654c.488 2.123 2.601 2.802 4.246 1.327a5.435 5.435 0 0 0 1.189-1.624 13.467 13.467 0 0 0 1.359-5.659h.021Zm44.618-3.073h-1.592c-.175 0-.234.037-.271.223a764.861 764.861 0 0 1-1.151 6.083l-1.45 7.643c0 .117-.047.239-.069.361-.111.531-.111.531-.674.531h-4.506c-.212 0-.265 0-.223-.26.835-4.342 1.653-8.673 2.452-12.994.08-.43.16-.865.244-1.295.043-.202.038-.313-.233-.302h-1.937c-.213 0-.245-.064-.207-.25.228-1.168.456-2.341.674-3.519.037-.196.1-.281.334-.276h1.906c.233 0 .307-.058.345-.292a12.72 12.72 0 0 1 1.401-4.379 7.33 7.33 0 0 1 5.727-3.896 9.47 9.47 0 0 1 3.838.244c.249.075.334.154.26.446-.319 1.178-.605 2.373-.892 3.562-.053.212-.117.292-.361.217a4.293 4.293 0 0 0-1.884-.154 2.871 2.871 0 0 0-1.895 1.296 7.433 7.433 0 0 0-.961 2.818c-.048.212.138.133.223.133h3.11c.314 0 .34.095.287.355a337.674 337.674 0 0 0-.621 3.403c-.037.223-.127.297-.356.292-.509-.006-1.008.01-1.518.01Zm-86.194 15.207a11.067 11.067 0 0 1-5.059-1.189c-.18-.095-.217-.18-.148-.371.399-1.104.785-2.212 1.157-3.323.074-.207.138-.202.313-.117 1.228.617 2.567.978 3.938 1.062.441.026.883-.036 1.301-.181a1.744 1.744 0 0 0 .764-2.829 4.788 4.788 0 0 0-1.284-1.061 13.77 13.77 0 0 1-2.24-1.561c-2.606-2.319-1.985-5.669-.218-7.59a7.357 7.357 0 0 1 4.246-2.229 12.096 12.096 0 0 1 5.6.26c.998.297.993.313.674 1.284-.318.972-.584 1.784-.865 2.681-.064.201-.138.233-.34.154a7.996 7.996 0 0 0-3.418-.621 2.801 2.801 0 0 0-1.311.376 1.526 1.526 0 0 0-.733 1.815c.072.225.196.431.362.601.376.394.815.722 1.3.971.792.429 1.538.939 2.224 1.523 2.033 1.778 2.378 3.864 1.396 6.301-.711 1.762-2.123 2.797-3.885 3.423-1.216.41-2.491.62-3.774.621Zm75.223-19.188c-.557 2.914-1.109 5.781-1.661 8.647l-1.624 8.423-.287 1.508c-.026.149-.048.255-.255.255h-4.989a1.06 1.06 0 0 1-.138 0l.557-2.925 1.386-7.282 1.443-7.585c.053-.282.112-.563.154-.844 0-.128.064-.175.197-.175l5.217-.022Zm-4.554-4.979a3.044 3.044 0 0 1 2.481-3.029 3.045 3.045 0 0 1 1.404.068 2.523 2.523 0 0 1 1.831 2.563 2.946 2.946 0 0 1-2.468 2.999c-2.054.409-3.275-.891-3.248-2.601Z" fill="#fff"/><defs><clipPath id="a"><path fill="#fff" transform="translate(425.613 .306)" d="M0 0h41.563v57H0z"/></clipPath></defs></svg>